<?xml version="1.0" encoding="UTF-8"?>
<svg version="1.1" xmlns="http://www.w3.org/2000/svg" width="284" height="189">
<path d="M0 0 C0.82003006 -0.00014603 1.64006012 -0.00029205 2.48493958 -0.0004425 C5.18489259 0.00025199 7.88477589 0.00802269 10.5847168 0.01586914 C12.460871 0.01773496 14.33702568 0.01915809 16.21318054 0.02015686 C21.14345655 0.02396909 26.07370295 0.03378832 31.00396729 0.04486084 C36.03804117 0.0551028 41.07211986 0.05966045 46.10620117 0.06469727 C55.97795895 0.07541175 65.84969478 0.09247263 75.72143555 0.11352539 C73.92412332 4.07765198 71.83256862 5.79780369 68.28393555 8.36352539 C67.75622559 8.74831055 67.22851562 9.1330957 66.68481445 9.52954102 C65.58545879 10.329906 64.48352972 11.12674729 63.37915039 11.92016602 C61.76303834 13.08357628 60.15807844 14.26242901 58.5534668 15.44165039 C49.30530693 22.23422224 49.30530693 22.23422224 43.75610352 22.25537109 C42.20341263 22.26592278 42.20341263 22.26592278 40.61935425 22.27668762 C39.49546295 22.2808519 38.37157166 22.28501617 37.21362305 22.28930664 C34.84121843 22.31251398 32.46882258 22.33663168 30.09643555 22.36157227 C26.35060851 22.39662811 22.60510164 22.42599425 18.85913086 22.43945312 C15.24773101 22.45497422 11.63727273 22.49522389 8.02612305 22.53930664 C6.91437714 22.53739822 5.80263123 22.53548981 4.65719604 22.53352356 C-4.38470348 22.67498817 -10.48049736 24.80066551 -16.84301758 31.27758789 C-17.29612305 31.75969727 -17.74922852 32.24180664 -18.21606445 32.73852539 C-18.69624023 33.22836914 -19.17641602 33.71821289 -19.67114258 34.22290039 C-22.29638464 36.93084953 -22.29638464 36.93084953 -24.27856445 40.11352539 C-22.78860962 40.14325439 -22.78860962 40.14325439 -21.26855469 40.17358398 C-17.55769951 40.25007422 -13.84721443 40.33872198 -10.13671875 40.4309082 C-8.5355565 40.46901958 -6.93431382 40.50390252 -5.33300781 40.53540039 C-3.02160031 40.5814415 -0.71073801 40.63936747 1.6003418 40.69946289 C2.3079213 40.7110141 3.01550079 40.72256531 3.74452209 40.73446655 C9.48774013 40.90224051 14.67488463 41.51621736 19.28393555 45.11352539 C27.86409289 55.67371904 27.86409289 55.67371904 27.5690918 60.71899414 C26.65687093 63.29591299 25.75547706 64.56053256 23.78393555 66.42602539 C23.25928711 66.9377832 22.73463867 67.44954102 22.1940918 67.97680664 C20.72143555 69.11352539 20.72143555 69.11352539 18.72143555 69.11352539 C18.72143555 69.77352539 18.72143555 70.43352539 18.72143555 71.11352539 C17.0769043 72.73461914 17.0769043 72.73461914 14.90893555 74.55102539 C11.89680289 77.08691871 11.89680289 77.08691871 9.0847168 79.83618164 C7.72143555 81.11352539 7.72143555 81.11352539 5.72143555 81.11352539 C5.22643555 82.59852539 5.22643555 82.59852539 4.72143555 84.11352539 C-7.90794273 95.92735341 -22.65669717 105.30120436 -38.40356445 112.30102539 C-39.34071289 112.72577148 -40.27786133 113.15051758 -41.2434082 113.58813477 C-56.40393194 120.40506956 -56.40393194 120.40506956 -60.27856445 119.11352539 C-58.99228734 117.94091928 -57.69936662 116.77559709 -56.40356445 115.61352539 C-55.32461914 114.63899414 -55.32461914 114.63899414 -54.22387695 113.64477539 C-52.27856445 112.11352539 -52.27856445 112.11352539 -50.27856445 112.11352539 C-50.27856445 111.45352539 -50.27856445 110.79352539 -50.27856445 110.11352539 C-49.61856445 110.11352539 -48.95856445 110.11352539 -48.27856445 110.11352539 C-48.27856445 109.45352539 -48.27856445 108.79352539 -48.27856445 108.11352539 C-47.61856445 108.11352539 -46.95856445 108.11352539 -46.27856445 108.11352539 C-46.27856445 107.45352539 -46.27856445 106.79352539 -46.27856445 106.11352539 C-44.6340332 104.49243164 -44.6340332 104.49243164 -42.46606445 102.67602539 C-39.4539318 100.14013207 -39.4539318 100.14013207 -36.6418457 97.39086914 C-35.27856445 96.11352539 -35.27856445 96.11352539 -33.27856445 96.11352539 C-33.27856445 95.45352539 -33.27856445 94.79352539 -33.27856445 94.11352539 C-32.61856445 94.11352539 -31.95856445 94.11352539 -31.27856445 94.11352539 C-31.27856445 93.45352539 -31.27856445 92.79352539 -31.27856445 92.11352539 C-29.80981445 90.66821289 -29.80981445 90.66821289 -27.77856445 88.98852539 C-23.92864106 85.73458658 -20.41792111 82.26579821 -16.94262695 78.61743164 C-15.27856445 77.11352539 -15.27856445 77.11352539 -13.27856445 77.11352539 C-13.27856445 76.45352539 -13.27856445 75.79352539 -13.27856445 75.11352539 C-11.6340332 73.52758789 -11.6340332 73.52758789 -9.46606445 71.73852539 C-6.65809167 69.41644954 -4.16603523 67.26140024 -2.27856445 64.11352539 C-2.60856445 63.12352539 -2.93856445 62.13352539 -3.27856445 61.11352539 C-4.33430664 61.12923584 -4.33430664 61.12923584 -5.41137695 61.14526367 C-41.53246664 61.61092393 -41.53246664 61.61092393 -48.27856445 57.11352539 C-51.24699103 56.65437032 -51.24699103 56.65437032 -54.46606445 56.48852539 C-55.55274414 56.41375977 -56.63942383 56.33899414 -57.7590332 56.26196289 C-58.59047852 56.21297852 -59.42192383 56.16399414 -60.27856445 56.11352539 C-60.27856445 55.12352539 -60.27856445 54.13352539 -60.27856445 53.11352539 C-57.30856445 53.11352539 -54.33856445 53.11352539 -51.27856445 53.11352539 C-51.93856445 52.45352539 -52.59856445 51.79352539 -53.27856445 51.11352539 C-54.27966391 46.38702303 -54.29139776 41.93373153 -51.91137695 37.65649414 C-49.80848811 35.02570167 -47.57479639 32.5777743 -45.27856445 30.11352539 C-43.71280621 28.31003423 -42.16561542 26.49163592 -40.61938477 24.67138672 C-39.09315867 22.87697019 -37.55440088 21.09407325 -36.01293945 19.31274414 C-34.29105319 17.32232314 -32.66704819 15.321456 -31.0559082 13.23461914 C-29.06832634 10.86262584 -28.19021591 10.71593604 -25.27856445 10.11352539 C-24.94856445 9.12352539 -24.61856445 8.13352539 -24.27856445 7.11352539 C-21.95043945 5.54321289 -21.95043945 5.54321289 -19.02856445 3.98852539 C-18.0746582 3.47032227 -17.12075195 2.95211914 -16.13793945 2.41821289 C-10.83698669 -0.00052785 -5.74946021 -0.02693327 0 0 Z " fill="#F94D02" transform="translate(124.278564453125,33.886474609375)"/>
<path d="M0 0 C3.25148632 1.17053508 3.639486 1.615479 5.6875 4.6875 C5.36824747 8.51853042 4.84296298 10.45430553 2.6875 13.6875 C2.0275 13.6875 1.3675 13.6875 0.6875 13.6875 C0.31625 14.55375 0.31625 14.55375 -0.0625 15.4375 C-1.49549988 18.01689979 -3.09674676 19.74871592 -5.3125 21.6875 C-5.9725 21.6875 -6.6325 21.6875 -7.3125 21.6875 C-7.3125 22.3475 -7.3125 23.0075 -7.3125 23.6875 C-7.9725 23.6875 -8.6325 23.6875 -9.3125 23.6875 C-9.3125 24.3475 -9.3125 25.0075 -9.3125 25.6875 C-21.06835411 35.95499827 -35.42124855 44.21044373 -49.54296875 50.71484375 C-53.47897968 52.5453638 -55.90679601 53.9452938 -58.3125 57.6875 C-58.9725 57.6875 -59.6325 57.6875 -60.3125 57.6875 C-60.3125 58.3475 -60.3125 59.0075 -60.3125 59.6875 C-60.9725 59.6875 -61.6325 59.6875 -62.3125 59.6875 C-62.56902344 60.27273437 -62.82554687 60.85796875 -63.08984375 61.4609375 C-64.41812162 63.87984608 -65.87774801 65.41948872 -67.875 67.3125 C-70.45265389 69.73271959 -70.45265389 69.73271959 -72.3125 72.6875 C-72.9725 72.6875 -73.6325 72.6875 -74.3125 72.6875 C-74.3125 73.3475 -74.3125 74.0075 -74.3125 74.6875 C-74.9725 74.6875 -75.6325 74.6875 -76.3125 74.6875 C-76.57417969 75.27273437 -76.83585937 75.85796875 -77.10546875 76.4609375 C-79.53066218 80.93459528 -83.41005784 84.48595758 -87.6875 87.1875 C-92.39946079 88.08501634 -96.85926072 87.99417271 -101.16796875 85.69921875 C-106.92605324 81.23242095 -110.45816409 74.74951792 -114.3125 68.6875 C-115.06996173 67.55962936 -115.83171295 66.43462803 -116.59765625 65.3125 C-117.32855469 64.24 -118.05945313 63.1675 -118.8125 62.0625 C-119.4828125 61.08023438 -120.153125 60.09796875 -120.84375 59.0859375 C-122.3125 56.6875 -122.3125 56.6875 -122.3125 54.6875 C-123.55 55.038125 -124.7875 55.38875 -126.0625 55.75 C-129.215792 56.64343273 -131.18024164 56.69631294 -134.3125 55.6875 C-132.64583333 54.02083333 -130.97916667 52.35416667 -129.3125 50.6875 C-128.755625 50.089375 -128.19875 49.49125 -127.625 48.875 C-126.3125 47.6875 -126.3125 47.6875 -124.3125 47.6875 C-124.3125 47.0275 -124.3125 46.3675 -124.3125 45.6875 C-123.6525 45.6875 -122.9925 45.6875 -122.3125 45.6875 C-121.9825 44.6975 -121.6525 43.7075 -121.3125 42.6875 C-119.60546875 41.2578125 -119.60546875 41.2578125 -117.5 39.8125 C-114.17910985 37.42765967 -111.69078494 35.056737 -109.3125 31.6875 C-107.5625 31.80078125 -107.5625 31.80078125 -105.3125 32.6875 C-103.3125 35.41796875 -103.3125 35.41796875 -101.3125 38.875 C-98.75675775 43.24272356 -96.15603309 47.5047136 -93.3125 51.6875 C-92.425625 51.089375 -91.53875 50.49125 -90.625 49.875 C-88.65691915 48.57532397 -86.66393612 47.31042798 -84.625 46.125 C-82.34878654 44.83317934 -82.34878654 44.83317934 -80.90063477 43.26635742 C-78.02705179 40.40956094 -74.58344522 38.28419102 -71.25 36 C-70.51716797 35.48888672 -69.78433594 34.97777344 -69.02929688 34.45117188 C-68.32740234 33.96841797 -67.62550781 33.48566406 -66.90234375 32.98828125 C-66.26159912 32.54653564 -65.62085449 32.10479004 -64.96069336 31.6496582 C-63.3125 30.6875 -63.3125 30.6875 -61.3125 30.6875 C-61.3125 30.0275 -61.3125 29.3675 -61.3125 28.6875 C-60.3225 28.6875 -59.3325 28.6875 -58.3125 28.6875 C-58.3125 28.0275 -58.3125 27.3675 -58.3125 26.6875 C-57.36375 26.15125 -56.415 25.615 -55.4375 25.0625 C-52.55564653 23.41818202 -49.71070543 21.72253511 -46.875 20 C-41.5697654 16.79884764 -36.17130339 13.77249671 -30.75805664 10.7590332 C-27.87314157 9.14911775 -25.06294349 7.521129 -22.3125 5.6875 C-22.3125 18.35962639 -37.69606509 32.30704066 -45.3125 41.6875 C-41.12014965 41.6875 -38.60335675 39.4594589 -35.25 37.1875 C-28.56756757 32.6875 -28.56756757 32.6875 -26.3125 32.6875 C-26.3125 32.0275 -26.3125 31.3675 -26.3125 30.6875 C-24.703125 29.25 -24.703125 29.25 -22.5625 27.6875 C-21.51835937 26.9140625 -21.51835937 26.9140625 -20.453125 26.125 C-18.46148379 24.78754751 -16.48222077 23.70394577 -14.3125 22.6875 C-14.3125 22.0275 -14.3125 21.3675 -14.3125 20.6875 C-13.6525 20.6875 -12.9925 20.6875 -12.3125 20.6875 C-12.3125 20.0275 -12.3125 19.3675 -12.3125 18.6875 C-11.6525 18.6875 -10.9925 18.6875 -10.3125 18.6875 C-10.3125 18.0275 -10.3125 17.3675 -10.3125 16.6875 C-9.6525 16.6875 -8.9925 16.6875 -8.3125 16.6875 C-8.3125 16.0275 -8.3125 15.3675 -8.3125 14.6875 C-7.6525 14.6875 -6.9925 14.6875 -6.3125 14.6875 C-5.1547494 11.21424819 -5.24383348 8.32682552 -5.3125 4.6875 C-9.13995451 2.94064692 -12.43692723 2.33863667 -16.625 2.0625 C-18.22794922 1.95035156 -18.22794922 1.95035156 -19.86328125 1.8359375 C-20.67152344 1.78695312 -21.47976562 1.73796875 -22.3125 1.6875 C-22.3125 1.0275 -22.3125 0.3675 -22.3125 -0.3125 C-16.48687821 -3.2253109 -6.05237103 -1.88889357 0 0 Z " fill="#023A4E" transform="translate(262.3125,68.3125)"/>
<path d="M0 0 C3.25148632 1.17053508 3.639486 1.615479 5.6875 4.6875 C5.36824747 8.51853042 4.84296298 10.45430553 2.6875 13.6875 C2.0275 13.6875 1.3675 13.6875 0.6875 13.6875 C0.31625 14.55375 0.31625 14.55375 -0.0625 15.4375 C-1.49549988 18.01689979 -3.09674676 19.74871592 -5.3125 21.6875 C-5.9725 21.6875 -6.6325 21.6875 -7.3125 21.6875 C-7.3125 22.3475 -7.3125 23.0075 -7.3125 23.6875 C-7.9725 23.6875 -8.6325 23.6875 -9.3125 23.6875 C-9.3125 24.3475 -9.3125 25.0075 -9.3125 25.6875 C-21.06835411 35.95499827 -35.42124855 44.21044373 -49.54296875 50.71484375 C-53.47897968 52.5453638 -55.90679601 53.9452938 -58.3125 57.6875 C-58.9725 57.6875 -59.6325 57.6875 -60.3125 57.6875 C-60.3125 58.3475 -60.3125 59.0075 -60.3125 59.6875 C-60.9725 59.6875 -61.6325 59.6875 -62.3125 59.6875 C-62.69728516 60.56535156 -62.69728516 60.56535156 -63.08984375 61.4609375 C-64.41812162 63.87984608 -65.87774801 65.41948872 -67.875 67.3125 C-70.45265389 69.73271959 -70.45265389 69.73271959 -72.3125 72.6875 C-72.9725 72.6875 -73.6325 72.6875 -74.3125 72.6875 C-74.3125 73.3475 -74.3125 74.0075 -74.3125 74.6875 C-74.9725 74.6875 -75.6325 74.6875 -76.3125 74.6875 C-76.57417969 75.27273437 -76.83585937 75.85796875 -77.10546875 76.4609375 C-79.53066218 80.93459528 -83.41005784 84.48595758 -87.6875 87.1875 C-92.39946079 88.08501634 -96.85926072 87.99417271 -101.16796875 85.69921875 C-106.9249288 81.23329322 -110.46210117 74.75148844 -114.3125 68.6875 C-115.92742416 66.35949245 -117.5477549 64.03600873 -119.18359375 61.72265625 C-120.47559806 59.39347201 -120.91598281 57.30815959 -121.3125 54.6875 C-118.4375 55.3125 -118.4375 55.3125 -115.3125 56.6875 C-114.1875 59.625 -114.1875 59.625 -113.3125 62.6875 C-111.98857028 63.69991685 -110.65650833 64.70189389 -109.3125 65.6875 C-109.3125 67.0075 -109.3125 68.3275 -109.3125 69.6875 C-108.6525 69.6875 -107.9925 69.6875 -107.3125 69.6875 C-106.9 70.821875 -106.4875 71.95625 -106.0625 73.125 C-104.77493848 76.77475436 -104.77493848 76.77475436 -102.3125 77.4375 C-101.6525 77.52 -100.9925 77.6025 -100.3125 77.6875 C-98.5625 79.0625 -98.5625 79.0625 -97.3125 80.6875 C-97.3125 81.6775 -97.3125 82.6675 -97.3125 83.6875 C-94.35585481 85.1658226 -91.57020263 84.74782783 -88.3125 84.6875 C-88.3125 82.7075 -88.3125 80.7275 -88.3125 78.6875 C-87.735 78.666875 -87.1575 78.64625 -86.5625 78.625 C-83.54063272 77.36588863 -83.07557469 75.43196834 -81.625 72.6328125 C-80.06376741 70.31884276 -78.38830995 69.06425402 -76.125 67.4375 C-70.50042308 63.33257813 -66.54581022 58.16203322 -62.3125 52.6875 C-60.69009457 50.62692668 -59.05929545 48.64602823 -57.3125 46.6875 C-56.6525 46.6875 -55.9925 46.6875 -55.3125 46.6875 C-55.044375 46.06875 -54.77625 45.45 -54.5 44.8125 C-53.3125 42.6875 -53.3125 42.6875 -50.3125 40.6875 C-49.30181239 39.02729268 -48.30382952 37.35933838 -47.3125 35.6875 C-45.5702087 33.52673057 -43.81401181 31.41046012 -42 29.3125 C-41.51088135 28.74249268 -41.0217627 28.17248535 -40.51782227 27.58520508 C-39.55275042 26.46059604 -38.58656 25.33694573 -37.61914062 24.21435547 C-36.50831824 22.9163205 -35.41615344 21.60235603 -34.328125 20.28515625 C-33.03211594 18.71647202 -31.67950881 17.19471484 -30.3125 15.6875 C-29.6525 15.6875 -28.9925 15.6875 -28.3125 15.6875 C-29.7136833 20.83039065 -31.98855521 24.4261365 -35.125 28.625 C-35.55103516 29.20701172 -35.97707031 29.78902344 -36.41601562 30.38867188 C-37.27280672 31.55914443 -38.13232428 32.72762635 -38.99462891 33.89404297 C-41.13207103 36.80283323 -43.22013578 39.74616932 -45.3125 42.6875 C-39.92018319 40.13840478 -35.07390428 37.29308768 -30.1953125 33.859375 C-28.3125 32.6875 -28.3125 32.6875 -26.3125 32.6875 C-26.3125 32.0275 -26.3125 31.3675 -26.3125 30.6875 C-24.703125 29.25 -24.703125 29.25 -22.5625 27.6875 C-21.51835937 26.9140625 -21.51835937 26.9140625 -20.453125 26.125 C-18.46148379 24.78754751 -16.48222077 23.70394577 -14.3125 22.6875 C-14.3125 22.0275 -14.3125 21.3675 -14.3125 20.6875 C-13.6525 20.6875 -12.9925 20.6875 -12.3125 20.6875 C-12.3125 20.0275 -12.3125 19.3675 -12.3125 18.6875 C-11.6525 18.6875 -10.9925 18.6875 -10.3125 18.6875 C-10.3125 18.0275 -10.3125 17.3675 -10.3125 16.6875 C-9.6525 16.6875 -8.9925 16.6875 -8.3125 16.6875 C-8.3125 16.0275 -8.3125 15.3675 -8.3125 14.6875 C-7.6525 14.6875 -6.9925 14.6875 -6.3125 14.6875 C-5.1547494 11.21424819 -5.24383348 8.32682552 -5.3125 4.6875 C-9.13995451 2.94064692 -12.43692723 2.33863667 -16.625 2.0625 C-18.22794922 1.95035156 -18.22794922 1.95035156 -19.86328125 1.8359375 C-20.67152344 1.78695312 -21.47976562 1.73796875 -22.3125 1.6875 C-22.3125 1.0275 -22.3125 0.3675 -22.3125 -0.3125 C-16.48687821 -3.2253109 -6.05237103 -1.88889357 0 0 Z " fill="#0D2834" transform="translate(262.3125,68.3125)"/>
<path d="M0 0 C-1.45217676 1.50596108 -2.91192861 3.00462104 -4.375 4.5 C-5.59316406 5.75296875 -5.59316406 5.75296875 -6.8359375 7.03125 C-9 9 -9 9 -11 9 C-11.33 9.99 -11.66 10.98 -12 12 C-24.7288791 23.90690351 -39.59380123 33.27376196 -55.4375 40.375 C-56.90606445 41.04982422 -56.90606445 41.04982422 -58.40429688 41.73828125 C-65.61676007 45 -65.61676007 45 -69 45 C-69 44.01 -69 43.02 -69 42 C-67.0859375 40.16015625 -67.0859375 40.16015625 -64.375 38.0625 C-63.3746875 37.27230469 -62.374375 36.48210937 -61.34375 35.66796875 C-60.80234375 35.2404834 -60.2609375 34.81299805 -59.703125 34.37255859 C-56.69587704 31.94899953 -53.79225889 29.40548159 -50.875 26.875 C-46.29336856 22.91505936 -41.63783001 19.11634216 -36.81640625 15.44921875 C-34.79020542 13.88797449 -34.79020542 13.88797449 -32.375 11.375 C-25.54114088 4.54114088 -9.76914166 -4.88457083 0 0 Z " fill="#143A42" transform="translate(141,106)"/>
<path d="M0 0 C0.99 0 1.98 0 3 0 C3.33 1.98 3.66 3.96 4 6 C5.32 6.33 6.64 6.66 8 7 C8.22315871 12.30164051 8.38608525 17.60052943 8.49438477 22.90576172 C8.53953797 24.70832952 8.60088058 26.51056956 8.67895508 28.31201172 C9.31071737 43.26784848 9.31071737 43.26784848 6.09716797 47.51464844 C2.4856909 49.99138594 -0.75718355 50.93929589 -5 52 C-5 37.15 -5 22.3 -5 7 C-3.35 7 -1.7 7 0 7 C0 4.69 0 2.38 0 0 Z " fill="#034B64" transform="translate(229,27)"/>
<path d="M0 0 C3.25148632 1.17053508 3.639486 1.615479 5.6875 4.6875 C5.36824747 8.51853042 4.84296298 10.45430553 2.6875 13.6875 C2.0275 13.6875 1.3675 13.6875 0.6875 13.6875 C0.44 14.265 0.1925 14.8425 -0.0625 15.4375 C-1.49549988 18.01689979 -3.09674676 19.74871592 -5.3125 21.6875 C-5.9725 21.6875 -6.6325 21.6875 -7.3125 21.6875 C-7.3125 22.3475 -7.3125 23.0075 -7.3125 23.6875 C-7.9725 23.6875 -8.6325 23.6875 -9.3125 23.6875 C-9.3125 24.3475 -9.3125 25.0075 -9.3125 25.6875 C-21.53589615 36.36334692 -37.80526467 46.88764145 -53.3125 51.6875 C-52.9825 50.3675 -52.6525 49.0475 -52.3125 47.6875 C-51.6525 47.6875 -50.9925 47.6875 -50.3125 47.6875 C-49.9825 46.6975 -49.6525 45.7075 -49.3125 44.6875 C-46.90625 43.29296875 -46.90625 43.29296875 -43.8125 41.875 C-38.89875992 39.53540299 -34.47898778 36.94927698 -30.0546875 33.7890625 C-28.3125 32.6875 -28.3125 32.6875 -26.3125 32.6875 C-26.3125 32.0275 -26.3125 31.3675 -26.3125 30.6875 C-24.703125 29.25 -24.703125 29.25 -22.5625 27.6875 C-21.86640625 27.171875 -21.1703125 26.65625 -20.453125 26.125 C-18.46148379 24.78754751 -16.48222077 23.70394577 -14.3125 22.6875 C-14.3125 22.0275 -14.3125 21.3675 -14.3125 20.6875 C-13.6525 20.6875 -12.9925 20.6875 -12.3125 20.6875 C-12.3125 20.0275 -12.3125 19.3675 -12.3125 18.6875 C-11.6525 18.6875 -10.9925 18.6875 -10.3125 18.6875 C-10.3125 18.0275 -10.3125 17.3675 -10.3125 16.6875 C-9.6525 16.6875 -8.9925 16.6875 -8.3125 16.6875 C-8.3125 16.0275 -8.3125 15.3675 -8.3125 14.6875 C-7.6525 14.6875 -6.9925 14.6875 -6.3125 14.6875 C-5.1547494 11.21424819 -5.24383348 8.32682552 -5.3125 4.6875 C-9.13995451 2.94064692 -12.43692723 2.33863667 -16.625 2.0625 C-18.22794922 1.95035156 -18.22794922 1.95035156 -19.86328125 1.8359375 C-20.67152344 1.78695312 -21.47976562 1.73796875 -22.3125 1.6875 C-22.3125 1.0275 -22.3125 0.3675 -22.3125 -0.3125 C-16.48687821 -3.2253109 -6.05237103 -1.88889357 0 0 Z " fill="#F59125" transform="translate(262.3125,68.3125)"/>
<path d="M0 0 C0.66 0 1.32 0 2 0 C2.33 2.64 2.66 5.28 3 8 C4.32 8.33 5.64 8.66 7 9 C9.4384672 26.46257156 9.4384672 26.46257156 7 34 C3.87946289 37.76686195 0.55258243 40.19765798 -4 42 C-4.99 41.67 -5.98 41.34 -7 41 C-7.02465504 36.60343827 -7.04283842 32.2069128 -7.05493164 27.81030273 C-7.05997121 26.31355082 -7.06680287 24.81680384 -7.07543945 23.32006836 C-7.08752159 21.17300193 -7.09323191 19.02600038 -7.09765625 16.87890625 C-7.10289307 15.5854126 -7.10812988 14.29191895 -7.11352539 12.95922852 C-7 10 -7 10 -6 9 C-4.33382885 8.95936168 -2.66611905 8.957279 -1 9 C-1.020625 7.700625 -1.04125 6.40125 -1.0625 5.0625 C-1.08399454 3.70834367 -1.07148199 2.35243917 -1 1 C-0.67 0.67 -0.34 0.34 0 0 Z " fill="#09465D" transform="translate(181,70)"/>
<path d="M0 0 C0.99 0 1.98 0 3 0 C3 2.64 3 5.28 3 8 C4.32 8 5.64 8 7 8 C7 17.24 7 26.48 7 36 C5.515 36.495 5.515 36.495 4 37 C4 37.66 4 38.32 4 39 C1.0173094 40.52448631 -1.818202 41.93940067 -5 43 C-6.1802738 39.4591786 -6.0238386 36.37644627 -5.87890625 32.70703125 C-5.85529526 32.00100266 -5.83168427 31.29497406 -5.80735779 30.56755066 C-5.73087055 28.31565493 -5.64678253 26.06411613 -5.5625 23.8125 C-5.50926432 22.28452259 -5.45652401 20.75652784 -5.40429688 19.22851562 C-5.27527576 15.48545165 -5.13943788 11.74268981 -5 8 C-3.68 8 -2.36 8 -1 8 C-0.67 5.36 -0.34 2.72 0 0 Z " fill="#054961" transform="translate(213,46)"/>
<path d="M0 0 C0.99 0 1.98 0 3 0 C3 2.64 3 5.28 3 8 C4.32 8 5.64 8 7 8 C8.5704738 16.24498746 9.97152459 25.72988614 8 34 C4.89505821 37.7868924 1.65371358 39.57223259 -3 41 C-3.99 41 -4.98 41 -6 41 C-6 30.44 -6 19.88 -6 9 C-4.02 8.67 -2.04 8.34 0 8 C0 5.36 0 2.72 0 0 Z " fill="#014B64" transform="translate(197,58)"/>
<path d="M0 0 C0.66 0.99 1.32 1.98 2 3 C1.67 3.99 1.34 4.98 1 6 C0.01 6.33 -0.98 6.66 -2 7 C-2.33 7.66 -2.66 8.32 -3 9 C-2.36707031 8.68289062 -1.73414063 8.36578125 -1.08203125 8.0390625 C3.05311469 6.64495753 6.97580212 6.53929479 11.3125 6.375 C12.14845703 6.33632812 12.98441406 6.29765625 13.84570312 6.2578125 C15.89679259 6.16404841 17.94836515 6.08095755 20 6 C20.33 4.68 20.66 3.36 21 2 C23.97 1.505 23.97 1.505 27 1 C25.38405168 3.04119788 23.7143618 5.04072937 22 7 C21.34 7 20.68 7 20 7 C20 7.66 20 8.32 20 9 C15.55484142 10.44726093 11.33189878 11.23606753 6.6875 11.8125 C-1.48826993 13.0087244 -8.42363892 15.72659378 -14 22 C-14.66 22 -15.32 22 -16 22 C-16.24234375 22.5878125 -16.4846875 23.175625 -16.734375 23.78125 C-18.24100211 26.42249753 -19.82555091 27.66962122 -22.25 29.5 C-26.67158108 32.92688577 -30.95243733 36.47291061 -35.1875 40.125 C-35.75694336 40.61548828 -36.32638672 41.10597656 -36.91308594 41.61132812 C-37.47157227 42.09279297 -38.03005859 42.57425781 -38.60546875 43.0703125 C-39.1576709 43.54500977 -39.70987305 44.01970703 -40.27880859 44.50878906 C-41.49754294 45.56467976 -42.70803064 46.63012378 -43.91259766 47.70214844 C-44.53569824 48.25161133 -45.15879883 48.80107422 -45.80078125 49.3671875 C-46.36579346 49.8710498 -46.93080566 50.37491211 -47.51293945 50.89404297 C-49 52 -49 52 -51 52 C-51 52.99 -51 53.98 -51 55 C-50.34 55.33 -49.68 55.66 -49 56 C-52.3 56.66 -55.6 57.32 -59 58 C-57.33333333 56.33333333 -55.66666667 54.66666667 -54 53 C-53.443125 52.401875 -52.88625 51.80375 -52.3125 51.1875 C-51 50 -51 50 -49 50 C-49 49.34 -49 48.68 -49 48 C-48.34 48 -47.68 48 -47 48 C-47 47.34 -47 46.68 -47 46 C-46.34 46 -45.68 46 -45 46 C-45 45.34 -45 44.68 -45 44 C-43.35546875 42.37890625 -43.35546875 42.37890625 -41.1875 40.5625 C-38.17536735 38.02660668 -38.17536735 38.02660668 -35.36328125 35.27734375 C-34 34 -34 34 -32 34 C-32 33.34 -32 32.68 -32 32 C-31.34 32 -30.68 32 -30 32 C-30 31.34 -30 30.68 -30 30 C-28.53125 28.5546875 -28.53125 28.5546875 -26.5 26.875 C-22.6500766 23.62106119 -19.13935665 20.15227282 -15.6640625 16.50390625 C-14 15 -14 15 -12 15 C-12 14.34 -12 13.68 -12 13 C-10.35546875 11.4140625 -10.35546875 11.4140625 -8.1875 9.625 C-4.74087854 6.77478845 -2.01473512 4.02947025 0 0 Z " fill="#C9470E" transform="translate(123,96)"/>
<path d="M0 0 C-1.45217676 1.50596108 -2.91192861 3.00462104 -4.375 4.5 C-5.18710938 5.3353125 -5.99921875 6.170625 -6.8359375 7.03125 C-9 9 -9 9 -11 9 C-11.33 9.99 -11.66 10.98 -12 12 C-13.73496934 13.58520814 -15.53681912 15.0982273 -17.375 16.5625 C-18.35210937 17.34753906 -19.32921875 18.13257812 -20.3359375 18.94140625 C-22.17384324 20.36160614 -24.06740933 21.71160622 -26 23 C-26 22.01 -26 21.02 -26 20 C-27.093125 19.731875 -28.18625 19.46375 -29.3125 19.1875 C-32.61692663 18.12336261 -33.94960422 17.65345336 -36 15 C-28.46652116 6.99567873 -11.84050307 -5.92025154 0 0 Z " fill="#263E40" transform="translate(141,106)"/>
<path d="M0 0 C0.33 0 0.66 0 1 0 C1.20086443 3.71599191 1.1519437 4.77208445 -1 8 C-1.61875 8.103125 -2.2375 8.20625 -2.875 8.3125 C-6.234472 9.399388 -7.36050259 12.07021222 -9 15 C-9.44988281 15.77214844 -9.89976563 16.54429688 -10.36328125 17.33984375 C-13.37894544 22.85298758 -14.77180291 26.71531913 -14 33 C-11.8824606 36.17630911 -10.2304343 37.12974856 -7 39 C-7 39.33 -7 39.66 -7 40 C-5.58521362 40.03758423 -5.58521362 40.03758423 -4.1418457 40.07592773 C-0.62871337 40.17129809 2.88426708 40.27051725 6.3972168 40.37231445 C7.91507755 40.41551548 9.43298226 40.45720048 10.95092773 40.49731445 C13.13799259 40.55537812 15.32483918 40.61896656 17.51171875 40.68359375 C18.82615967 40.72025146 20.14060059 40.75690918 21.49487305 40.79467773 C24.44699698 40.96760636 27.12950496 41.32160714 30 42 C27.06426112 43.67495131 24.94919083 44.25557925 21.578125 44.265625 C20.29784424 44.27166748 20.29784424 44.27166748 18.99169922 44.27783203 C18.08693848 44.26864746 17.18217773 44.25946289 16.25 44.25 C15.32074707 44.24468262 14.39149414 44.23936523 13.43408203 44.23388672 C-8.08636746 43.94242169 -8.08636746 43.94242169 -14 40 C-16.96842658 39.54084493 -16.96842658 39.54084493 -20.1875 39.375 C-21.27417969 39.30023438 -22.36085938 39.22546875 -23.48046875 39.1484375 C-24.31191406 39.09945312 -25.14335938 39.05046875 -26 39 C-26 38.01 -26 37.02 -26 36 C-23.03 36 -20.06 36 -17 36 C-17.66 35.34 -18.32 34.68 -19 34 C-20.00717799 29.24479901 -20.01238138 24.79916245 -17.59765625 20.5078125 C-15.50236011 17.8940484 -13.27845334 15.45590298 -11 13 C-10.01132736 11.83394195 -9.02989326 10.66171892 -8.0546875 9.484375 C-2.74065852 3.07300551 -2.74065852 3.07300551 0 0 Z " fill="#FA5D1D" transform="translate(90,51)"/>
<path d="M0 0 C11.68272641 -0.02314534 23.36544738 -0.04092631 35.04819202 -0.05181217 C40.47264731 -0.05703618 45.89708693 -0.06412514 51.3215332 -0.07543945 C56.55401959 -0.08628537 61.7864909 -0.09228047 67.01898766 -0.09487724 C69.01771978 -0.0967284 71.01645105 -0.10034313 73.01517677 -0.10573006 C75.80937119 -0.11296306 78.60350285 -0.11398998 81.39770508 -0.11352539 C82.64387604 -0.1189183 82.64387604 -0.1189183 83.91522217 -0.12442017 C87.20319433 -0.1184839 89.85821544 -0.04726152 93 1 C93 1.66 93 2.32 93 3 C62.31 3 31.62 3 0 3 C0 2.01 0 1.02 0 0 Z " fill="#E27031" transform="translate(22,96)"/>
<path d="M0 0 C0.66 0.33 1.32 0.66 2 1 C1.7683828 4.57441683 1.27508063 5.75563013 -1.44921875 8.17578125 C-2.51785156 8.88089844 -3.58648437 9.58601563 -4.6875 10.3125 C-5.54903687 10.88508545 -5.54903687 10.88508545 -6.42797852 11.46923828 C-16.27929805 17.92139323 -26.71818894 24.50801086 -38 28 C-37.67 26.68 -37.34 25.36 -37 24 C-36.34 24 -35.68 24 -35 24 C-34.67 23.01 -34.34 22.02 -34 21 C-31.59375 19.60546875 -31.59375 19.60546875 -28.5 18.1875 C-23.58625992 15.84790299 -19.16648778 13.26177698 -14.7421875 10.1015625 C-13 9 -13 9 -11 9 C-11 8.34 -11 7.68 -11 7 C-7.83457257 4.22580517 -3.95520989 1.46489255 0 0 Z " fill="#E96A1D" transform="translate(247,92)"/>
<path d="M0 0 C0.82046814 -0.00029205 1.64093628 -0.00058411 2.48626709 -0.00088501 C5.16999273 0.0004967 7.85343287 0.01600272 10.53710938 0.03173828 C12.40897469 0.03547254 14.28084198 0.03831756 16.15270996 0.04031372 C21.05832398 0.04791767 25.96381791 0.06753811 30.86938477 0.08972168 C35.88360978 0.11025012 40.89785437 0.11933036 45.91210938 0.12939453 C55.73507855 0.15078726 65.55795894 0.18488379 75.38085938 0.22705078 C73.81895781 3.57719142 72.3889887 5.28730958 69.38085938 7.47705078 C68.32898438 8.25822266 68.32898438 8.25822266 67.25585938 9.05517578 C65.38085938 10.22705078 65.38085938 10.22705078 63.38085938 10.22705078 C63.38085938 7.91705078 63.38085938 5.60705078 63.38085938 3.22705078 C63.05085938 3.55705078 62.72085938 3.88705078 62.38085938 4.22705078 C60.38127574 4.26785861 58.38040684 4.26959434 56.38085938 4.22705078 C56.38085938 3.89705078 56.38085938 3.56705078 56.38085938 3.22705078 C48.04408114 3.20380991 39.70731661 3.18607607 31.37051392 3.17523861 C27.49878794 3.17003538 23.62708425 3.16298456 19.75537109 3.15161133 C16.01414778 3.14069105 12.2729458 3.13475469 8.53170776 3.13217354 C7.10928003 3.13033569 5.68685338 3.12674701 4.26443481 3.12132072 C-2.78155646 3.09552726 -9.65341717 3.10367239 -16.61914062 4.22705078 C-16.61914062 3.56705078 -16.61914062 2.90705078 -16.61914062 2.22705078 C-10.92156193 0.60433094 -5.90648951 -0.05612651 0 0 Z " fill="#F07531" transform="translate(124.619140625,33.77294921875)"/>
<path d="M0 0 C0.66 0.33 1.32 0.66 2 1 C0.71034824 2.37562854 -0.62689293 3.70766393 -2 5 C-2.66 5 -3.32 5 -4 5 C-4.0928125 5.8353125 -4.0928125 5.8353125 -4.1875 6.6875 C-5.33373872 9.94987173 -7.49390197 11.68667874 -10 14 C-9.01 14.33 -8.02 14.66 -7 15 C-6.3125 17.0625 -6.3125 17.0625 -6 19 C-9.59996502 20.67585347 -13.20562136 22.33908513 -16.8125 24 C-17.83666016 24.47695312 -18.86082031 24.95390625 -19.91601562 25.4453125 C-21.39038086 26.12207031 -21.39038086 26.12207031 -22.89453125 26.8125 C-23.80050049 27.23144531 -24.70646973 27.65039062 -25.63989258 28.08203125 C-28 29 -28 29 -31 29 C-31 28.01 -31 27.02 -31 26 C-29.0859375 24.16015625 -29.0859375 24.16015625 -26.375 22.0625 C-25.37855469 21.27488281 -24.38210937 20.48726562 -23.35546875 19.67578125 C-22.54408447 19.03503662 -22.54408447 19.03503662 -21.71630859 18.38134766 C-18.64538839 15.90975925 -15.67055866 13.32635051 -12.6875 10.75 C-8.48879344 7.12845347 -4.26870509 3.53895671 0 0 Z " fill="#253C40" transform="translate(103,122)"/>
<path d="M0 0 C0.66 0.33 1.32 0.66 2 1 C0.35821735 5.77609498 -2.26546702 9.79382904 -5 14 C-5.33 13.34 -5.66 12.68 -6 12 C-5.67 11.34 -5.34 10.68 -5 10 C-11.02641463 14.48118011 -15.34830923 20.15118293 -20 26 C-21.01638997 27.23284339 -22.03617862 28.46291199 -23.0625 29.6875 C-23.701875 30.450625 -24.34125 31.21375 -25 32 C-25.70703125 30.24609375 -25.70703125 30.24609375 -26 28 C-24.63671875 26.03515625 -24.63671875 26.03515625 -22.6875 24.0625 C-19.97913358 21.17609355 -18.09379296 18.88904164 -17 15 C-18.32 15 -19.64 15 -21 15 C-21 14.34 -21 13.68 -21 13 C-16.51621032 9.60686186 -11.54914291 7.08547182 -6.5859375 4.46484375 C-4.22382373 3.12678837 -2.12609563 1.68191133 0 0 Z " fill="#176D83" transform="translate(239,74)"/>
<path d="M0 0 C1.44588166 0.00186815 2.89176396 0.00329018 4.33764648 0.00428772 C8.11873157 0.00808162 11.89977744 0.01788474 15.68084717 0.0289917 C19.5489448 0.03927351 23.41704885 0.04379976 27.28515625 0.04882812 C34.85678859 0.05951021 42.42838877 0.07654848 50 0.09765625 C47.10508048 1.74547864 45.06105848 2.3428689 41.73803711 2.30883789 C40.90715073 2.30545914 40.07626434 2.30208038 39.22019958 2.29859924 C38.33155716 2.28513962 37.44291473 2.27167999 36.52734375 2.2578125 C35.60788467 2.25261093 34.6884256 2.24740936 33.74110413 2.24205017 C30.80640798 2.22425262 27.8720624 2.19308026 24.9375 2.16015625 C21.99940144 2.13253577 19.06135243 2.1078281 16.1231842 2.088974 C14.29569543 2.07672121 12.46823312 2.05912177 10.64085388 2.03565979 C9.81311966 2.02912888 8.98538544 2.02259796 8.13256836 2.01586914 C7.40516953 2.00761612 6.67777069 1.9993631 5.92832947 1.99085999 C3.77912306 2.02501325 3.77912306 2.02501325 1 3.09765625 C0.01 2.76765625 -0.98 2.43765625 -2 2.09765625 C-7.04386419 1.69150239 -11.41813962 1.73730393 -16 4.09765625 C-16.99 4.59265625 -16.99 4.59265625 -18 5.09765625 C-18 4.43765625 -18 3.77765625 -18 3.09765625 C-23.3304666 5.59410452 -27.68120351 8.76565216 -32.31640625 12.35546875 C-34.99467103 14.09419668 -36.86040897 14.72294918 -40 15.09765625 C-36.52356021 9.26220374 -36.52356021 9.26220374 -33.8125 8.41015625 C-32.9153125 8.25546875 -32.9153125 8.25546875 -32 8.09765625 C-31.67 7.10765625 -31.34 6.11765625 -31 5.09765625 C-29.43359375 3.96484375 -29.43359375 3.96484375 -27.4375 2.97265625 C-26.79683594 2.64007813 -26.15617187 2.3075 -25.49609375 1.96484375 C-17.42452168 -0.83936439 -8.41752925 -0.03211147 0 0 Z " fill="#FC6A06" transform="translate(131,35.90234375)"/>
<path d="M0 0 C0.99 0.99 1.98 1.98 3 3 C1.25395451 4.4630657 -0.49699453 5.9202808 -2.25 7.375 C-3.22453125 8.18710937 -4.1990625 8.99921875 -5.203125 9.8359375 C-9.32974563 13.02888139 -11.94940538 14.24810645 -17.19238281 14.25537109 C-18.22735901 14.26233002 -19.26233521 14.26928894 -20.32867432 14.27645874 C-21.9990274 14.27496323 -21.9990274 14.27496323 -23.703125 14.2734375 C-26.0690151 14.29373145 -28.43490049 14.31458233 -30.80078125 14.3359375 C-34.52461735 14.35850918 -38.24826667 14.37499727 -41.97216797 14.38085938 C-45.57032938 14.39040737 -49.16765234 14.42421965 -52.765625 14.4609375 C-53.8710968 14.45589203 -54.9765686 14.45084656 -56.11553955 14.44564819 C-64.07837549 14.54646393 -69.3169663 15.8853357 -75.53125 21.140625 C-76.50578125 22.18476562 -76.50578125 22.18476562 -77.5 23.25 C-78.1703125 23.95640625 -78.840625 24.6628125 -79.53125 25.390625 C-80.0159375 25.92171875 -80.500625 26.4528125 -81 27 C-81.33 26.01 -81.66 25.02 -82 24 C-81.01 22.515 -81.01 22.515 -80 21 C-79.34 21 -78.68 21 -78 21 C-78 20.34 -78 19.68 -78 19 C-71.02956192 13.09880556 -64.4223743 12.14140553 -55.5703125 12.265625 C-53.84118118 12.25218048 -53.84118118 12.25218048 -52.07711792 12.23846436 C-48.42587774 12.21451124 -44.77624205 12.23022445 -41.125 12.25 C-37.45275803 12.24855726 -33.78079955 12.23870462 -30.10861206 12.21868896 C-27.8315546 12.20849274 -25.55440546 12.21020643 -23.27737427 12.22515869 C-22.24885345 12.22465515 -21.22033264 12.22415161 -20.16064453 12.22363281 C-19.25814972 12.22840637 -18.35565491 12.23317993 -17.42581177 12.23809814 C-14.82364887 11.98269079 -13.25815562 11.27320936 -11 10 C-9.6757713 9.63215869 -8.34386088 9.28797019 -7 9 C-7 8.34 -7 7.68 -7 7 C-6.34 7 -5.68 7 -5 7 C-5 6.34 -5 5.68 -5 5 C-4.01 5 -3.02 5 -2 5 C-1.855625 4.360625 -1.71125 3.72125 -1.5625 3.0625 C-1 1 -1 1 0 0 Z " fill="#C94A1D" transform="translate(185,42)"/>
<path d="M0 0 C0 0.99 0 1.98 0 3 C-0.66 3.66 -1.32 4.32 -2 5 C-2.23203125 5.74121094 -2.4640625 6.48242188 -2.703125 7.24609375 C-4.55675427 11.18226435 -7.4329899 13.32691148 -10.75 16.0625 C-12.102954 17.20301894 -13.45581626 18.34364671 -14.80859375 19.484375 C-15.50065918 20.06251953 -16.19272461 20.64066406 -16.90576172 21.23632812 C-18.96917005 22.97403642 -21.00571022 24.73842931 -23.03515625 26.515625 C-23.6703418 27.06984131 -24.30552734 27.62405762 -24.95996094 28.19506836 C-26.17777859 29.25833167 -27.393346 30.32417884 -28.60644531 31.39282227 C-32.77473958 35 -32.77473958 35 -35 35 C-35 35.99 -35 36.98 -35 38 C-34.34 38.33 -33.68 38.66 -33 39 C-36.3 39.66 -39.6 40.32 -43 41 C-41.33333333 39.33333333 -39.66666667 37.66666667 -38 36 C-37.443125 35.401875 -36.88625 34.80375 -36.3125 34.1875 C-35 33 -35 33 -33 33 C-33 32.34 -33 31.68 -33 31 C-32.34 31 -31.68 31 -31 31 C-31 30.34 -31 29.68 -31 29 C-30.34 29 -29.68 29 -29 29 C-29 28.34 -29 27.68 -29 27 C-27.35546875 25.37890625 -27.35546875 25.37890625 -25.1875 23.5625 C-22.17536735 21.02660668 -22.17536735 21.02660668 -19.36328125 18.27734375 C-18 17 -18 17 -16 17 C-16 16.34 -16 15.68 -16 15 C-15.34 15 -14.68 15 -14 15 C-14 14.34 -14 13.68 -14 13 C-12.4609375 11.484375 -12.4609375 11.484375 -10.375 9.75 C-6.72639996 6.65323448 -3.34103014 3.42455589 0 0 Z " fill="#CE652E" transform="translate(107,113)"/>
<path d="M0 0 C0.66 0 1.32 0 2 0 C2 0.99 2 1.98 2 3 C3.48995483 3.029729 3.48995483 3.029729 5.01000977 3.06005859 C8.72086494 3.13654883 12.43135003 3.22519658 16.1418457 3.31738281 C17.74300796 3.35549419 19.34425063 3.39037713 20.94555664 3.421875 C23.25696414 3.46791611 25.56782644 3.52584208 27.87890625 3.5859375 C28.58648575 3.59748871 29.29406525 3.60903992 30.02308655 3.62094116 C35.89748646 3.79254727 41.05037146 4.41309305 45.6875 8.1875 C52 15.86486486 52 15.86486486 52 20 C51.34 20 50.68 20 50 20 C49.67 18.9275 49.34 17.855 49 16.75 C47.31448968 12.90517232 45.34864518 11.41699261 41.50317383 9.84643555 C32.46303564 6.78955862 22.75916107 6.6574393 13.3125 6.4375 C10.99598164 6.37790703 8.67956089 6.31433769 6.36328125 6.24609375 C4.85181519 6.21020142 4.85181519 6.21020142 3.30981445 6.17358398 C1 6 1 6 0 5 C-0.04063832 3.33382885 -0.042721 1.66611905 0 0 Z " fill="#E06B2D" transform="translate(98,71)"/>
<path d="M0 0 C0 0.99 0 1.98 0 3 C-16.5 3 -33 3 -50 3 C-50.33 2.34 -50.66 1.68 -51 1 C-34.01917144 -0.33744923 -17.01934147 -0.09843897 0 0 Z " fill="#D87448" transform="translate(96,118)"/>
<path d="M0 0 C1.63636414 -0.00855011 1.63636414 -0.00855011 3.30578613 -0.01727295 C5.59154304 -0.02665525 7.87731306 -0.0332297 10.16308594 -0.03710938 C13.67405944 -0.04692479 17.18447325 -0.07805444 20.6953125 -0.109375 C22.92187154 -0.1158957 25.14843474 -0.12114982 27.375 -0.125 C28.95299377 -0.1435202 28.95299377 -0.1435202 30.56286621 -0.16241455 C32.01578064 -0.1579129 32.01578064 -0.1579129 33.49804688 -0.15332031 C34.77850891 -0.15878876 34.77850891 -0.15878876 36.08483887 -0.16436768 C37.11018738 0.0175412 37.11018738 0.0175412 38.15625 0.203125 C38.81625 1.193125 39.47625 2.183125 40.15625 3.203125 C20.02625 3.203125 -0.10375 3.203125 -20.84375 3.203125 C-21.17375 2.543125 -21.50375 1.883125 -21.84375 1.203125 C-14.54789044 0.33143346 -7.34435219 0.03013375 0 0 Z " fill="#DF773A" transform="translate(25.84375,77.796875)"/>
<path d="M0 0 C2.875 0.625 2.875 0.625 6 2 C7.125 4.9375 7.125 4.9375 8 8 C9.32392972 9.01241685 10.65599167 10.01439389 12 11 C12 12.32 12 13.64 12 15 C12.66 15 13.32 15 14 15 C14.45375 16.134375 14.9075 17.26875 15.375 18.4375 C16.57095806 22.04721692 16.57095806 22.04721692 19 23 C19.72693904 24.97888961 20.39816251 26.97954558 21 29 C18 29 18 29 16.2734375 27.3046875 C12.3150566 22.23861153 8.58851363 17.06108225 5.0625 11.6875 C4.67304199 11.10145996 4.28358398 10.51541992 3.88232422 9.91162109 C1.78436494 6.63723605 0.45827628 3.87716284 0 0 Z " fill="#16303A" transform="translate(141,123)"/>
<path d="M0 0 C0.99 0 1.98 0 3 0 C3.33 1.98 3.66 3.96 4 6 C5.32 6.33 6.64 6.66 8 7 C8 19.54 8 32.08 8 45 C7.67 45 7.34 45 7 45 C7 32.79 7 20.58 7 8 C5.02 8.99 5.02 8.99 3 10 C2.01 10 1.02 10 0 10 C0 9.34 0 8.68 0 8 C-1.32 8 -2.64 8 -4 8 C-3.67 21.86 -3.34 35.72 -3 50 C-2.34 50.33 -1.68 50.66 -1 51 C-2.98 51.495 -2.98 51.495 -5 52 C-5 37.15 -5 22.3 -5 7 C-3.35 7 -1.7 7 0 7 C0 4.69 0 2.38 0 0 Z " fill="#3C5B6A" transform="translate(229,27)"/>
<path d="M0 0 C0.495 1.485 0.495 1.485 1 3 C-12.02200548 5.96168356 -26.77253756 3.63738637 -40 3 C-40 2.34 -40 1.68 -40 1 C-26.67369574 -0.21345209 -13.37064456 -0.10315631 0 0 Z " fill="#DEA988" transform="translate(78,58)"/>
<path d="M0 0 C0.66 0 1.32 0 2 0 C2.33 2.64 2.66 5.28 3 8 C4.32 8.33 5.64 8.66 7 9 C7.33 11.64 7.66 14.28 8 17 C7.34 17.33 6.68 17.66 6 18 C4 15 4 15 4 12 C1.12586875 11.66602213 1.12586875 11.66602213 -2 12 C-4.72537195 14.80798317 -5.38808885 16.90837211 -5.51171875 20.765625 C-5.54716797 21.65507813 -5.58261719 22.54453125 -5.61914062 23.4609375 C-5.64169922 24.38132812 -5.66425781 25.30171875 -5.6875 26.25 C-5.72166016 27.18585938 -5.75582031 28.12171875 -5.79101562 29.0859375 C-5.87332162 31.39050533 -5.9425263 33.69470119 -6 36 C-6.33 36 -6.66 36 -7 36 C-7.02886537 31.68751391 -7.04675255 27.37505238 -7.0625 23.0625 C-7.07087891 21.83080078 -7.07925781 20.59910156 -7.08789062 19.33007812 C-7.09111328 18.16025391 -7.09433594 16.99042969 -7.09765625 15.78515625 C-7.10289307 14.70113525 -7.10812988 13.61711426 -7.11352539 12.50024414 C-7 10 -7 10 -6 9 C-4.33382885 8.95936168 -2.66611905 8.957279 -1 9 C-1.020625 7.700625 -1.04125 6.40125 -1.0625 5.0625 C-1.08399454 3.70834367 -1.07148199 2.35243917 -1 1 C-0.67 0.67 -0.34 0.34 0 0 Z " fill="#496C7E" transform="translate(181,70)"/>
<path d="M0 0 C-3.40153999 3.89932633 -5.37794655 5.76727059 -10.59375 6.515625 C-13.18709281 6.62793512 -15.7831449 6.69124814 -18.37890625 6.69921875 C-22.30130539 7.02502752 -24.62207951 8.0430679 -28 10 C-29.33333333 10.66666667 -30.66666667 11.33333333 -32 12 C-27.83251422 5.36990898 -21.25061569 2.67245636 -13.859375 0.984375 C-2.63478922 -1.31739461 -2.63478922 -1.31739461 0 0 Z " fill="#704124" transform="translate(141,106)"/>
<path d="M0 0 C-0.66 1.32 -1.32 2.64 -2 4 C-2.66 4 -3.32 4 -4 4 C-4.33 4.99 -4.66 5.98 -5 7 C-6.19625 6.608125 -7.3925 6.21625 -8.625 5.8125 C-13.06315629 4.69711098 -15.04621349 5.64455272 -19 8 C-22.49582387 9.12577379 -25.32725539 10 -29 10 C-26.71445084 6.57167626 -25.70384847 6.41098989 -22 5 C-20.65724831 4.01268258 -19.32267727 3.01405257 -18 2 C-14.7206743 0.90689143 -11.88253463 0.67999964 -8.4375 0.4375 C-7.28121094 0.35371094 -6.12492187 0.26992187 -4.93359375 0.18359375 C-3.29113754 0.08080355 -1.64566953 0 0 0 Z " fill="#443A2C" transform="translate(134,111)"/>
<path d="M0 0 C0.33 0.99 0.66 1.98 1 3 C0.525625 3.433125 0.05125 3.86625 -0.4375 4.3125 C-2.23686957 6.02309613 -2.23686957 6.02309613 -3 9 C-4.99045493 9.52208654 -6.98414331 10.03684651 -8.99609375 10.46875 C-12.49206662 11.39555762 -14.50513991 13.50513991 -17 16 C-19.66128684 17.54526333 -20.84915995 18 -24 18 C-24.66 17.67 -25.32 17.34 -26 17 C-24.54550599 15.9944239 -23.08627557 14.99569565 -21.625 14 C-20.81289062 13.443125 -20.00078125 12.88625 -19.1640625 12.3125 C-17 11 -17 11 -15 11 C-15 10.34 -15 9.68 -15 9 C-14.01 9 -13.02 9 -12 9 C-12 8.34 -12 7.68 -12 7 C-10.4221875 6.1028125 -10.4221875 6.1028125 -8.8125 5.1875 C-5.85139522 3.49629991 -2.91639064 1.76750948 0 0 Z " fill="#28667A" transform="translate(216,88)"/>
<path d="M0 0 C0.66 0.99 1.32 1.98 2 3 C1.67 3.99 1.34 4.98 1 6 C0.01 6.33 -0.98 6.66 -2 7 C-2.69040574 8.65697379 -3.3530635 10.3255761 -4 12 C-6.84546833 16.06495476 -10.07806101 19.01591598 -14 22 C-14.66 22 -15.32 22 -16 22 C-16.66 23.32 -17.32 24.64 -18 26 C-18.6875 24.1875 -18.6875 24.1875 -19 22 C-17.6875 20.5 -17.6875 20.5 -16 19 C-14.82425289 16.90010348 -14.82425289 16.90010348 -14 15 C-13.34 15 -12.68 15 -12 15 C-12 14.34 -12 13.68 -12 13 C-10.35546875 11.4140625 -10.35546875 11.4140625 -8.1875 9.625 C-4.74087854 6.77478845 -2.01473512 4.02947025 0 0 Z " fill="#E36621" transform="translate(123,96)"/>
<path d="M0 0 C0 0.66 0 1.32 0 2 C-25.74 2 -51.48 2 -78 2 C-78 1.67 -78 1.34 -78 1 C-77.21374741 0.98969254 -76.42749481 0.97938507 -75.61741638 0.96876526 C-68.18787367 0.87056477 -60.75840936 0.7680195 -53.3289938 0.66066074 C-49.50996568 0.60562536 -45.69092968 0.55223776 -41.87182617 0.50268555 C-38.18241709 0.4547543 -34.4930942 0.40240371 -30.80378914 0.34705925 C-29.40009791 0.3267652 -27.99638316 0.30803189 -26.59264946 0.29092598 C-24.6182693 0.26659277 -22.64396846 0.23606687 -20.66967773 0.20532227 C-18.98756447 0.18200584 -18.98756447 0.18200584 -17.27146912 0.15821838 C-13.92240557 0.04960224 -13.92240557 0.04960224 -10.32923889 -0.54017639 C-6.65659531 -1.04742994 -3.63079375 -0.66688048 0 0 Z " fill="#D58462" transform="translate(115,97)"/>
<path d="M0 0 C0.66 0.33 1.32 0.66 2 1 C0.71034824 2.37562854 -0.62689293 3.70766393 -2 5 C-2.66 5 -3.32 5 -4 5 C-4.061875 5.556875 -4.12375 6.11375 -4.1875 6.6875 C-5.33373872 9.94987173 -7.49390197 11.68667874 -10 14 C-9.01 14.33 -8.02 14.66 -7 15 C-6.67 15.99 -6.34 16.98 -6 18 C-8.97 18.66 -11.94 19.32 -15 20 C-15.66 19.01 -16.32 18.02 -17 17 C-14.53777932 12.06640541 -10.98245687 9.12970111 -6.8125 5.6875 C-6.15830078 5.13771484 -5.50410156 4.58792969 -4.83007812 4.02148438 C-3.2254495 2.67453334 -1.61345013 1.33637151 0 0 Z " fill="#1A3537" transform="translate(103,122)"/>
<path d="M0 0 C4.75056583 -0.02478423 9.50109371 -0.04289989 14.25170898 -0.05493164 C15.86662451 -0.05994942 17.48153552 -0.06676511 19.09643555 -0.07543945 C21.42237465 -0.08761714 23.7482535 -0.09325395 26.07421875 -0.09765625 C27.15107185 -0.10539818 27.15107185 -0.10539818 28.24967957 -0.11329651 C31.96290232 -0.11370876 35.38991122 0.11055784 39 1 C36.00998145 2.71849443 33.87503041 3.24852003 30.4375 3.23046875 C29.12616089 3.22877686 29.12616089 3.22877686 27.78833008 3.22705078 C26.86818115 3.21399902 25.94803223 3.20094727 25 3.1875 C24.06115967 3.17960449 23.12231934 3.17170898 22.1550293 3.16357422 C2.9281087 2.9281087 2.9281087 2.9281087 0 0 Z " fill="#CD5838" transform="translate(81,92)"/>
<path d="M0 0 C0.99 0 1.98 0 3 0 C3 2.64 3 5.28 3 8 C4.32 8.33 5.64 8.66 7 9 C2.68380697 9.90338924 0.49202386 9.89840477 -4 9 C-4 19.56 -4 30.12 -4 41 C-3.34 41.33 -2.68 41.66 -2 42 C-3.485 42.495 -3.485 42.495 -5 43 C-6.1802738 39.4591786 -6.0238386 36.37644627 -5.87890625 32.70703125 C-5.85529526 32.00100266 -5.83168427 31.29497406 -5.80735779 30.56755066 C-5.73087055 28.31565493 -5.64678253 26.06411613 -5.5625 23.8125 C-5.50926432 22.28452259 -5.45652401 20.75652784 -5.40429688 19.22851562 C-5.27527576 15.48545165 -5.13943788 11.74268981 -5 8 C-3.68 8 -2.36 8 -1 8 C-0.67 5.36 -0.34 2.72 0 0 Z " fill="#345C68" transform="translate(213,46)"/>
<path d="M0 0 C0 0.99 0 1.98 0 3 C-1.8984375 4.82421875 -1.8984375 4.82421875 -4.375 6.6875 C-5.18710938 7.31011719 -5.99921875 7.93273438 -6.8359375 8.57421875 C-9 10 -9 10 -11 10 C-11 7.69 -11 5.38 -11 3 C-11.33 3.33 -11.66 3.66 -12 4 C-13.99958364 4.04080783 -16.00045254 4.04254356 -18 4 C-18 3.01 -18 2.02 -18 1 C-12.06 0.67 -6.12 0.34 0 0 Z " fill="#F8670A" transform="translate(199,34)"/>
<path d="M0 0 C0.66 0.33 1.32 0.66 2 1 C2 1.33 2 1.66 2 2 C3.32 2.33 4.64 2.66 6 3 C3.7941576 4.13011652 1.58554973 5.25415788 -0.625 6.375 C-1.55119141 6.85066406 -1.55119141 6.85066406 -2.49609375 7.3359375 C-6.25649167 9.23592803 -9.95517816 10.76788504 -14 12 C-13.67 10.68 -13.34 9.36 -13 8 C-12.34 8 -11.68 8 -11 8 C-10.67 7.01 -10.34 6.02 -10 5 C-7.78515625 3.578125 -7.78515625 3.578125 -5.0625 2.25 C-4.16660156 1.80140625 -3.27070313 1.3528125 -2.34765625 0.890625 C-1.18556641 0.44976562 -1.18556641 0.44976562 0 0 Z " fill="#C95925" transform="translate(223,108)"/>
<path d="M0 0 C1 2 1 2 0.40234375 3.83203125 C-1.46935588 6.72560588 -3.75510446 8.53232164 -6.4375 10.6875 C-7.40558594 11.47511719 -8.37367187 12.26273438 -9.37109375 13.07421875 C-12 15 -12 15 -15 16 C-15 16.99 -15 17.98 -15 19 C-14.34 19.33 -13.68 19.66 -13 20 C-16.3 20.66 -19.6 21.32 -23 22 C-21.33333333 20.33333333 -19.66666667 18.66666667 -18 17 C-17.443125 16.401875 -16.88625 15.80375 -16.3125 15.1875 C-15 14 -15 14 -13 14 C-13 13.34 -13 12.68 -13 12 C-12.34 12 -11.68 12 -11 12 C-11 11.34 -11 10.68 -11 10 C-10.34 10 -9.68 10 -9 10 C-9 9.34 -9 8.68 -9 8 C-7.28515625 6.30859375 -7.28515625 6.30859375 -5.0625 4.4375 C-4.33160156 3.81746094 -3.60070312 3.19742188 -2.84765625 2.55859375 C-2.23792969 2.04425781 -1.62820312 1.52992188 -1 1 C-0.67 0.67 -0.34 0.34 0 0 Z " fill="#BE6A40" transform="translate(87,132)"/>
<path d="M0 0 C0.33 0.66 0.66 1.32 1 2 C0.67 2.86625 0.34 3.7325 0 4.625 C-1.68664357 10.31742206 -0.15663588 15.21682061 1 21 C-2.96 21 -6.92 21 -11 21 C-11 20.01 -11 19.02 -11 18 C-8.03 18 -5.06 18 -2 18 C-2.66 17.34 -3.32 16.68 -4 16 C-4.72633893 10.75515725 -4.84584778 6.34806991 -2 1.8125 C-1.34 1.214375 -0.68 0.61625 0 0 Z " fill="#E0633B" transform="translate(75,69)"/>
<path d="M0 0 C1.65 0 3.3 0 5 0 C5 8.91 5 17.82 5 27 C4.01 27 3.02 27 2 27 C2.04600342 26.25314941 2.09200684 25.50629883 2.1394043 24.73681641 C2.33804973 21.36692915 2.51306307 17.99622329 2.6875 14.625 C2.76033203 13.449375 2.83316406 12.27375 2.90820312 11.0625 C2.96298828 9.94101563 3.01777344 8.81953125 3.07421875 7.6640625 C3.16062622 6.10872803 3.16062622 6.10872803 3.2487793 4.52197266 C3.16668213 3.68972168 3.08458496 2.8574707 3 2 C2.01 1.34 1.02 0.68 0 0 Z " fill="#0B394B" transform="translate(215,55)"/>
<path d="M0 0 C0.66 0.33 1.32 0.66 2 1 C0.35821735 5.77609498 -2.26546702 9.79382904 -5 14 C-5.33 13.34 -5.66 12.68 -6 12 C-5.67 11.34 -5.34 10.68 -5 10 C-5.99 10.33 -6.98 10.66 -8 11 C-8 10.34 -8 9.68 -8 9 C-8.99 8.67 -9.98 8.34 -11 8 C-8.83385197 5.69125289 -6.60793392 3.94709819 -3.9375 2.25 C-2.89916016 1.57710938 -2.89916016 1.57710938 -1.83984375 0.890625 C-1.23269531 0.59671875 -0.62554687 0.3028125 0 0 Z " fill="#2E6979" transform="translate(239,74)"/>
<path d="M0 0 C2 1.3125 2 1.3125 4 3 C4 3.99 4 4.98 4 6 C6.28705831 7.14352916 7.59264762 7.10334439 10.125 7.0625 C11.40375 7.041875 12.6825 7.02125 14 7 C14 6.34 14 5.68 14 5 C15.65 4.67 17.3 4.34 19 4 C16.13914252 7.59914328 14.01792816 9.33410392 9.5 9.9375 C5.86958667 10.16781003 3.24772707 9.78101162 0 8 C-0.38063221 5.6739143 -0.71269945 3.33944736 -1 1 C-0.67 0.67 -0.34 0.34 0 0 Z " fill="#1B2D37" transform="translate(161,146)"/>
<path d="M0 0 C0.66 0 1.32 0 2 0 C0.64737628 4.74130209 -1.33354354 8.32288579 -4.125 12.375 C-4.84945312 13.43460938 -5.57390625 14.49421875 -6.3203125 15.5859375 C-6.87460938 16.38257812 -7.42890625 17.17921875 -8 18 C-9.125 14.25 -9.125 14.25 -8 12 C-8.66 11.67 -9.32 11.34 -10 11 C-8.38150935 9.16053461 -6.75581169 7.32848583 -5.125 5.5 C-4.66480469 4.97535156 -4.20460937 4.45070313 -3.73046875 3.91015625 C-2.52827924 2.56858245 -1.26754054 1.28000815 0 0 Z " fill="#174050" transform="translate(232,84)"/>
<path d="M0 0 C0.99 0.99 1.98 1.98 3 3 C1.25395451 4.4630657 -0.49699453 5.9202808 -2.25 7.375 C-3.22453125 8.18710937 -4.1990625 8.99921875 -5.203125 9.8359375 C-9.82395663 13.4112737 -12.36233101 14.2529928 -18.25 14.125 C-19.32765625 14.10695313 -20.4053125 14.08890625 -21.515625 14.0703125 C-22.33546875 14.04710937 -23.1553125 14.02390625 -24 14 C-24 13.67 -24 13.34 -24 13 C-23.09507812 12.92652344 -23.09507812 12.92652344 -22.171875 12.8515625 C-21.37265625 12.77679688 -20.5734375 12.70203125 -19.75 12.625 C-18.96109375 12.55539063 -18.1721875 12.48578125 -17.359375 12.4140625 C-14.8997872 11.98241298 -13.18218182 11.18355624 -11 10 C-9.6757713 9.63215869 -8.34386088 9.28797019 -7 9 C-7 8.34 -7 7.68 -7 7 C-6.34 7 -5.68 7 -5 7 C-5 6.34 -5 5.68 -5 5 C-4.01 5 -3.02 5 -2 5 C-1.855625 4.360625 -1.71125 3.72125 -1.5625 3.0625 C-1 1 -1 1 0 0 Z " fill="#E96E28" transform="translate(185,42)"/>
<path d="M0 0 C0.66 0.33 1.32 0.66 2 1 C2 1.99 2 2.98 2 4 C-0.23046875 6.0078125 -0.23046875 6.0078125 -3.1875 8.125 C-4.15042969 8.82882813 -5.11335938 9.53265625 -6.10546875 10.2578125 C-8.87078061 11.92222423 -10.8275538 12.61721856 -14 13 C-10.52356021 7.16454749 -10.52356021 7.16454749 -7.8125 6.3125 C-7.214375 6.209375 -6.61625 6.10625 -6 6 C-5.67 5.01 -5.34 4.02 -5 3 C-2.5625 1.25 -2.5625 1.25 0 0 Z " fill="#F2621C" transform="translate(105,38)"/>
<path d="M0 0 C0.99 0 1.98 0 3 0 C3 2.64 3 5.28 3 8 C4.32 8 5.64 8 7 8 C8.12862175 13.36095333 8.09688221 18.55306686 8 24 C5.71937172 20.57905758 5.78074993 19.31812778 5.875 15.3125 C5.89304688 14.31863281 5.91109375 13.32476562 5.9296875 12.30078125 C5.95289063 11.54152344 5.97609375 10.78226563 6 10 C4.02 10 2.04 10 0 10 C0 6.7 0 3.4 0 0 Z " fill="#507383" transform="translate(197,58)"/>
<path d="M0 0 C0.66 0 1.32 0 2 0 C-2.42256973 9.48579209 -11.28664839 16.55415524 -20 22 C-17.64974019 16.23118045 -12.72868809 12.78295047 -8 9 C-5.54475594 6.66167232 -3.31161157 4.42702327 -1.3125 1.6875 C-0.6628125 0.8521875 -0.6628125 0.8521875 0 0 Z " fill="#DEB786" transform="translate(268,79)"/>
<path d="M0 0 C0 5.04737082 -1.20993402 8.13468964 -4.625 11.875 C-5.40875 12.57625 -6.1925 13.2775 -7 14 C-7.99 12.68 -8.98 11.36 -10 10 C-8.7121669 8.51749445 -7.41960936 7.03909182 -6.125 5.5625 C-5.40570313 4.73878906 -4.68640625 3.91507812 -3.9453125 3.06640625 C-2 1 -2 1 0 0 Z " fill="#032F3F" transform="translate(224,95)"/>
<path d="M0 0 C0.33 0 0.66 0 1 0 C1 11.22 1 22.44 1 34 C-1.475 34.495 -1.475 34.495 -4 35 C-3.690625 34.46375 -3.38125 33.9275 -3.0625 33.375 C-1.01580176 28.80002746 -0.86235351 23.89951163 -0.68359375 18.9453125 C-0.64169922 17.83671875 -0.59980469 16.728125 -0.55664062 15.5859375 C-0.51732422 14.44382812 -0.47800781 13.30171875 -0.4375 12.125 C-0.39431641 10.9596875 -0.35113281 9.794375 -0.30664062 8.59375 C-0.20098371 5.72927375 -0.09888201 2.86471679 0 0 Z " fill="#06384B" transform="translate(235,38)"/>
<path d="M0 0 C1.32 0.33 2.64 0.66 4 1 C4.33 2.65 4.66 4.3 5 6 C4.01 6 3.02 6 2 6 C-0.83552106 8.19897551 -3.46328806 10.46328806 -6 13 C-8.125 12.625 -8.125 12.625 -10 12 C-9.34 11.34 -8.68 10.68 -8 10 C-7.01 10 -6.02 10 -5 10 C-4.731875 9.46375 -4.46375 8.9275 -4.1875 8.375 C-2.79166667 5.58333333 -1.39583333 2.79166667 0 0 Z " fill="#12303B" transform="translate(153,100)"/>
<path d="M0 0 C0 0.99 0 1.98 0 3 C-0.99 3.495 -0.99 3.495 -2 4 C-2.46955201 6.22812847 -2.46955201 6.22812847 -2.6328125 8.91015625 C-2.75849609 10.39418945 -2.75849609 10.39418945 -2.88671875 11.90820312 C-2.96535156 12.94912109 -3.04398438 13.99003906 -3.125 15.0625 C-3.21136719 16.10728516 -3.29773438 17.15207031 -3.38671875 18.22851562 C-3.59958977 20.81844641 -3.80361379 23.4087755 -4 26 C-4.33 26 -4.66 26 -5 26 C-5.33 17.75 -5.66 9.5 -6 1 C-4 0 -4 0 0 0 Z " fill="#1F4F64" transform="translate(197,66)"/>
<path d="M0 0 C0.66 0.33 1.32 0.66 2 1 C1.875 3.25 1.875 3.25 1 6 C-2.0625 8.3125 -2.0625 8.3125 -5 10 C-5 9.01 -5 8.02 -5 7 C-6.98 7.33 -8.96 7.66 -11 8 C-7.45960866 5.0843836 -3.8373228 2.49872182 0 0 Z " fill="#EF7A21" transform="translate(247,92)"/>
<path d="M0 0 C14.27773165 -0.53653271 14.27773165 -0.53653271 19 2 C21.77073027 5.3477277 25 9.50277254 25 14 C24.34 14 23.68 14 23 14 C22.67 12.9275 22.34 11.855 22 10.75 C20.30049479 6.87324848 18.29826001 5.44344782 14.47265625 3.77734375 C9.75218034 2.29333947 4.89828461 1.62044938 0 1 C0 0.67 0 0.34 0 0 Z " fill="#FB730D" transform="translate(125,77)"/>
<path d="M0 0 C-4.95074073 3.95426576 -8.62178405 4.63341462 -14.875 4.75 C-16.050625 4.79447266 -16.050625 4.79447266 -17.25 4.83984375 C-19.16612807 4.909946 -21.08306537 4.95730658 -23 5 C-18.25514671 1.83676447 -13.93138827 0.66462331 -8.3125 -0.1875 C-7.17425781 -0.36667969 -6.03601563 -0.54585938 -4.86328125 -0.73046875 C-2 -1 -2 -1 0 0 Z " fill="#8C4522" transform="translate(141,106)"/>
<path d="M0 0 C0.33 0 0.66 0 1 0 C1.20086443 3.71599191 1.1519437 4.77208445 -1 8 C-1.61875 8.103125 -2.2375 8.20625 -2.875 8.3125 C-6.26135853 9.40808658 -7.24816035 12.03999507 -9 15 C-9.33 15.66 -9.66 16.32 -10 17 C-11.32 16.67 -12.64 16.34 -14 16 C-13.32453125 15.26394531 -12.6490625 14.52789062 -11.953125 13.76953125 C-11.05200228 12.78392827 -10.15096517 11.79824701 -9.25 10.8125 C-8.36828125 9.84957031 -7.4865625 8.88664062 -6.578125 7.89453125 C-4.90996369 6.02164105 -3.2906683 4.10355149 -1.734375 2.13671875 C-1.16203125 1.43160156 -0.5896875 0.72648437 0 0 Z " fill="#ED671B" transform="translate(90,51)"/>
<path d="M0 0 C0.5775 0.226875 1.155 0.45375 1.75 0.6875 C0.986875 1.120625 0.22375 1.55375 -0.5625 2 C-3.21286253 3.52502358 -3.21286253 3.52502358 -4.9375 5.375 C-5.370625 5.808125 -5.80375 6.24125 -6.25 6.6875 C-6.91 6.6875 -7.57 6.6875 -8.25 6.6875 C-8.58 7.6775 -8.91 8.6675 -9.25 9.6875 C-11.25 11.6875 -11.25 11.6875 -13.875 11.8125 C-14.65875 11.77125 -15.4425 11.73 -16.25 11.6875 C-12.625 6.8125 -12.625 6.8125 -9.25 5.6875 C-8.22803008 4.70996356 -7.23020375 3.7069119 -6.25 2.6875 C-2.83813414 -0.3941853 -2.83813414 -0.3941853 0 0 Z " fill="#315866" transform="translate(189.25,107.3125)"/>
<path d="M0 0 C0.33 0.66 0.66 1.32 1 2 C-6.59 2 -14.18 2 -22 2 C-22 1.34 -22 0.68 -22 0 C-19.64628886 -0.1968999 -17.2925305 -0.38270974 -14.9375 -0.5625 C-13.62652344 -0.66691406 -12.31554687 -0.77132812 -10.96484375 -0.87890625 C-7.1314913 -0.99598401 -3.74920854 -0.79760233 0 0 Z " fill="#CD895B" transform="translate(60,59)"/>
<path d="M0 0 C0.99 0 1.98 0 3 0 C2.625 1.9375 2.625 1.9375 2 4 C1.01 4.495 1.01 4.495 0 5 C-0.66 4.67 -1.32 4.34 -2 4 C-1.67 6.31 -1.34 8.62 -1 11 C-2.98 11.99 -2.98 11.99 -5 13 C-5.66 12.34 -6.32 11.68 -7 11 C-7 9 -7 7 -7 5 C-6.01 5 -5.02 5 -4 5 C-3.67 4.34 -3.34 3.68 -3 3 C-2.34 3 -1.68 3 -1 3 C-0.67 2.01 -0.34 1.02 0 0 Z " fill="#E93D09" transform="translate(100,67)"/>
<path d="M0 0 C0.99 0.66 1.98 1.32 3 2 C0.36 4.31 -2.28 6.62 -5 9 C-5.33 8.01 -5.66 7.02 -6 6 C-6.99 5.67 -7.98 5.34 -9 5 C-8.67 3.68 -8.34 2.36 -8 1 C-6.576875 1.309375 -6.576875 1.309375 -5.125 1.625 C-4.09375 1.74875 -3.0625 1.8725 -2 2 C-1.34 1.34 -0.68 0.68 0 0 Z " fill="#23414B" transform="translate(121,120)"/>
<path d="M0 0 C1.65 0 3.3 0 5 0 C5 0.66 5 1.32 5 2 C-0.5627436 3.81112582 -6.10341775 4.65170777 -11.88671875 5.4921875 C-15.39025912 6.06365582 -18.62984542 6.90274037 -22 8 C-21 6 -21 6 -18 5 C-17.67 4.34 -17.34 3.68 -17 3 C-8.585 2.505 -8.585 2.505 0 2 C0 1.34 0 0.68 0 0 Z " fill="#AD481A" transform="translate(138,103)"/>
<path d="M0 0 C0.54140625 0.23589844 1.0828125 0.47179687 1.640625 0.71484375 C0.7125 1.39546875 0.7125 1.39546875 -0.234375 2.08984375 C-2.41857333 3.68593294 -2.41857333 3.68593294 -4.359375 5.71484375 C-7.02066184 7.26010708 -8.20853495 7.71484375 -11.359375 7.71484375 C-12.019375 7.38484375 -12.679375 7.05484375 -13.359375 6.71484375 C-11.61979359 5.51213316 -9.86727755 4.32811365 -8.109375 3.15234375 C-6.64757812 2.16041016 -6.64757812 2.16041016 -5.15625 1.1484375 C-2.359375 -0.28515625 -2.359375 -0.28515625 0 0 Z " fill="#0A4D62" transform="translate(203.359375,98.28515625)"/>
<path d="M0 0 C1.98 0.66 3.96 1.32 6 2 C6.36237263 3.62318979 6.71465157 5.2486358 7.0625 6.875 C7.25972656 7.77992188 7.45695313 8.68484375 7.66015625 9.6171875 C8 12 8 12 7 14 C6.0106909 12.61133677 5.03396922 11.21370149 4.0625 9.8125 C3.51722656 9.03519531 2.97195312 8.25789062 2.41015625 7.45703125 C0.9543711 4.92049701 0.40386565 2.8781818 0 0 Z " fill="#1D3742" transform="translate(141,123)"/>
<path d="M0 0 C1.29292969 -0.01417969 2.58585938 -0.02835937 3.91796875 -0.04296875 C7.9433417 0.19524289 11.00804003 0.93908447 14.8125 2.1875 C14.8125 2.5175 14.8125 2.8475 14.8125 3.1875 C9.2025 2.8575 3.5925 2.5275 -2.1875 2.1875 C-2.1875 2.5175 -2.1875 2.8475 -2.1875 3.1875 C-4.4975 3.1875 -6.8075 3.1875 -9.1875 3.1875 C-9.1875 2.5275 -9.1875 1.8675 -9.1875 1.1875 C-6.1686799 -0.32191005 -3.3565314 0.01656728 0 0 Z " fill="#DE955D" transform="translate(249.1875,66.8125)"/>
<path d="M0 0 C0.33 0 0.66 0 1 0 C1.6875 3.0625 1.6875 3.0625 1 7 C-3.01426424 10.46564813 -7.57205149 14 -13 14 C-13 13.34 -13 12.68 -13 12 C-12.01 11.67 -11.02 11.34 -10 11 C-9.525625 10.484375 -9.05125 9.96875 -8.5625 9.4375 C-7 8 -7 8 -3 8 C-3.33 7.01 -3.66 6.02 -4 5 C-3.01 5 -2.02 5 -1 5 C-0.67 3.35 -0.34 1.7 0 0 Z " fill="#35555F" transform="translate(204,85)"/>
<path d="M0 0 C0.66 0.33 1.32 0.66 2 1 C2 1.66 2 2.32 2 3 C1.34 3 0.68 3 0 3 C0 4.65 0 6.3 0 8 C-2.64 8.33 -5.28 8.66 -8 9 C-6.90101298 5.70303895 -6.05402613 4.95329411 -3.4375 2.8125 C-2.79683594 2.28269531 -2.15617188 1.75289063 -1.49609375 1.20703125 C-0.75552734 0.60955078 -0.75552734 0.60955078 0 0 Z " fill="#1F3C44" transform="translate(136,116)"/>
<path d="M0 0 C0.33 0 0.66 0 1 0 C1.02505615 0.67579102 1.0501123 1.35158203 1.07592773 2.04785156 C1.19210742 5.1154168 1.31473437 8.18269158 1.4375 11.25 C1.47681641 12.31347656 1.51613281 13.37695312 1.55664062 14.47265625 C1.59853516 15.49746094 1.64042969 16.52226563 1.68359375 17.578125 C1.72025146 18.52075195 1.75690918 19.46337891 1.79467773 20.43457031 C1.92133211 22.96547991 1.92133211 22.96547991 2.58227539 25.21386719 C3 27 3 27 2 29 C1.34 29 0.68 29 0 29 C0 19.43 0 9.86 0 0 Z " fill="#083243" transform="translate(175,81)"/>
<path d="M0 0 C0.66 0 1.32 0 2 0 C0.62815653 4.06498881 -1.22068459 6.67396561 -4.125 9.8125 C-4.84945312 10.60269531 -5.57390625 11.39289063 -6.3203125 12.20703125 C-6.87460938 12.79871094 -7.42890625 13.39039062 -8 14 C-8.70703125 12.265625 -8.70703125 12.265625 -9 10 C-7.63671875 7.859375 -7.63671875 7.859375 -5.6875 5.75 C-5.05199219 5.04359375 -4.41648438 4.3371875 -3.76171875 3.609375 C-2 2 -2 2 0 2 C0 1.34 0 0.68 0 0 Z " fill="#0D6376" transform="translate(222,92)"/>
<path d="M0 0 C0.99 0 1.98 0 3 0 C3.33 2.97 3.66 5.94 4 9 C2.68 9.33 1.36 9.66 0 10 C0 9.34 0 8.68 0 8 C-1.65 8 -3.3 8 -5 8 C-5 7.67 -5 7.34 -5 7 C-3.35 7 -1.7 7 0 7 C0 4.69 0 2.38 0 0 Z " fill="#255766" transform="translate(229,27)"/>
<path d="M0 0 C0.33 0.99 0.66 1.98 1 3 C-0.0625 5.125 -0.0625 5.125 -2 7 C-5.1875 7.75 -5.1875 7.75 -8 8 C-8 7.01 -8 6.02 -8 5 C-2.65116279 0 -2.65116279 0 0 0 Z " fill="#323331" transform="translate(80,143)"/>
<path d="M0 0 C2.83022097 3.99560608 1.76210446 7.42737323 1 12 C0.01 12 -0.98 12 -2 12 C-2 12.66 -2 13.32 -2 14 C-2.99 14 -3.98 14 -5 14 C-4.6875 11.125 -4.6875 11.125 -4 8 C-3.01 7.34 -2.02 6.68 -1 6 C-0.26656572 2.93443402 -0.26656572 2.93443402 0 0 Z " fill="#06374E" transform="translate(203,79)"/>
<path d="M0 0 C-1 3 -1 3 -3.6875 4.5625 C-6.75708157 5.89458257 -9.80508036 7.0110963 -13 8 C-12.67 7.01 -12.34 6.02 -12 5 C-11.01 4.67 -10.02 4.34 -9 4 C-8.67 3.34 -8.34 2.68 -8 2 C-5.09740189 0.6250851 -3.23861295 0 0 0 Z " fill="#DC6C38" transform="translate(222,112)"/>
<path d="M0 0 C0 2.97 0 5.94 0 9 C-0.33 8.01 -0.66 7.02 -1 6 C-1.66 5.67 -2.32 5.34 -3 5 C-2.67 3.68 -2.34 2.36 -2 1 C-2.66 1 -3.32 1 -4 1 C-4 1.66 -4 2.32 -4 3 C-5.65 3.66 -7.3 4.32 -9 5 C-8.625 3.0625 -8.625 3.0625 -8 1 C-5.29120665 -0.35439668 -2.99066732 -0.06501451 0 0 Z " fill="#075772" transform="translate(203,68)"/>
<path d="M0 0 C1.5625 1.125 1.5625 1.125 3 3 C2.75921963 6.85248595 2.15973378 8.76039934 0 12 C-0.66 12 -1.32 12 -2 12 C-2 12.66 -2 13.32 -2 14 C-2.66 14 -3.32 14 -4 14 C-3.67 12.68 -3.34 11.36 -3 10 C-2.34 10 -1.68 10 -1 10 C-1 9.01 -1 8.02 -1 7 C-0.34 7 0.32 7 1 7 C0.67 4.69 0.34 2.38 0 0 Z " fill="#E99F45" transform="translate(265,70)"/>
<path d="M0 0 C0.99 0.33 1.98 0.66 3 1 C3 2.98 3 4.96 3 7 C1.35 7.33 -0.3 7.66 -2 8 C-2.33 7.34 -2.66 6.68 -3 6 C-2.06553465 3.96855359 -1.06775224 1.96466413 0 0 Z " fill="#042A36" transform="translate(138,115)"/>
<path d="M0 0 C0.33 0 0.66 0 1 0 C1 4.62 1 9.24 1 14 C0.34 14 -0.32 14 -1 14 C-1.33 14.99 -1.66 15.98 -2 17 C-2.66 17 -3.32 17 -4 17 C-4.33 15.68 -4.66 14.36 -5 13 C-3.68 12.67 -2.36 12.34 -1 12 C-0.67 8.04 -0.34 4.08 0 0 Z " fill="#053548" transform="translate(186,89)"/>
<path d="M0 0 C1.1653125 0.00515625 2.330625 0.0103125 3.53125 0.015625 C4.6965625 0.01046875 5.861875 0.0053125 7.0625 0 C10.03125 0.265625 10.03125 0.265625 12.03125 2.265625 C11.70125 2.595625 11.37125 2.925625 11.03125 3.265625 C8.33016496 3.174709 5.66194689 3.02821734 2.96875 2.828125 C1.83083008 2.74981445 1.83083008 2.74981445 0.66992188 2.66992188 C-1.20996722 2.53986665 -3.08940685 2.40334462 -4.96875 2.265625 C-2.96875 0.265625 -2.96875 0.265625 0 0 Z " fill="#D88D6B" transform="translate(73.96875,51.734375)"/>
<path d="M0 0 C2 1.3125 2 1.3125 4 3 C4 3.99 4 4.98 4 6 C4.99 7.485 4.99 7.485 6 9 C3.03 8.505 3.03 8.505 0 8 C-0.38063221 5.6739143 -0.71269945 3.33944736 -1 1 C-0.67 0.67 -0.34 0.34 0 0 Z " fill="#0C2733" transform="translate(161,146)"/>
<path d="M0 0 C0.66 0.33 1.32 0.66 2 1 C-0.31779067 4.80779895 -1.84255748 7.27967896 -6 9 C-6.33 9.66 -6.66 10.32 -7 11 C-7.99 11 -8.98 11 -10 11 C-8.83920845 7.51762536 -7.93131619 6.98418684 -5 4.9375 C-1.98371816 2.92046147 -1.98371816 2.92046147 0 0 Z " fill="#3D5059" transform="translate(150,103)"/>
<path d="M0 0 C0.33 0 0.66 0 1 0 C1.06058594 1.03640625 1.12117187 2.0728125 1.18359375 3.140625 C1.26803371 4.51042873 1.35267997 5.88021975 1.4375 7.25 C1.47681641 7.93191406 1.51613281 8.61382812 1.55664062 9.31640625 C1.76666472 12.64448041 2.01934002 15.80255402 3 19 C2.01 19.33 1.02 19.66 0 20 C0 13.4 0 6.8 0 0 Z " fill="#073349" transform="translate(225,58)"/>
<path d="M0 0 C8.57142857 -0.14285714 8.57142857 -0.14285714 12 1 C11.67 2.32 11.34 3.64 11 5 C9.35153231 4.55123384 7.70626545 4.09069512 6.0625 3.625 C5.14597656 3.36976562 4.22945312 3.11453125 3.28515625 2.8515625 C1 2 1 2 0 0 Z " fill="#EC8126" transform="translate(246,68)"/>
<path d="M0 0 C1.32 0.33 2.64 0.66 4 1 C4 1.66 4 2.32 4 3 C3.34 3 2.68 3 2 3 C1.731875 3.61875 1.46375 4.2375 1.1875 4.875 C0 7 0 7 -3 9 C-2.5020163 5.26512223 -2.12508244 3.18762365 0 0 Z " fill="#152B35" transform="translate(184,140)"/>
<path d="M0 0 C-0.66 1.32 -1.32 2.64 -2 4 C-2.66 4 -3.32 4 -4 4 C-4.33 4.99 -4.66 5.98 -5 7 C-6.98 6.34 -8.96 5.68 -11 5 C-10.443125 4.731875 -9.88625 4.46375 -9.3125 4.1875 C-6.91066602 2.99300335 -6.91066602 2.99300335 -4.375 1.375 C-2 0 -2 0 0 0 Z " fill="#57534D" transform="translate(134,111)"/>
<path d="M0 0 C0.66 0.33 1.32 0.66 2 1 C1.34 2.32 0.68 3.64 0 5 C0.66 5.66 1.32 6.32 2 7 C1.34 7 0.68 7 0 7 C0 7.66 0 8.32 0 9 C-1.32 8.34 -2.64 7.68 -4 7 C-2.92598892 4.08482708 -2.22189824 2.22189824 0 0 Z " fill="#183846" transform="translate(202,119)"/>
<path d="M0 0 C3.6875 0.875 3.6875 0.875 7 2 C5.68 3.32 4.36 4.64 3 6 C2.67 5.01 2.34 4.02 2 3 C0.35 2.67 -1.3 2.34 -3 2 C-2.01 1.34 -1.02 0.68 0 0 Z " fill="#354342" transform="translate(121,115)"/>
<path d="M0 0 C0.66 0 1.32 0 2 0 C1.34 1.98 0.68 3.96 0 6 C0.66 6.33 1.32 6.66 2 7 C1.01 7.99 0.02 8.98 -1 10 C-1.99 9.67 -2.98 9.34 -4 9 C-2.68 6.03 -1.36 3.06 0 0 Z " fill="#0E2D3D" transform="translate(205,115)"/>
<path d="M0 0 C1.63001953 0.01353516 1.63001953 0.01353516 3.29296875 0.02734375 C4.12441406 0.03894531 4.95585937 0.05054687 5.8125 0.0625 C2.71888642 2.12490906 1.34551454 2.45241902 -2.25 2.8125 C-3.12785156 2.91046875 -4.00570312 3.0084375 -4.91015625 3.109375 C-7.1875 3.0625 -7.1875 3.0625 -9.1875 1.0625 C-5.90230525 -0.03256492 -3.45086585 -0.03710608 0 0 Z " fill="#5D4332" transform="translate(125.1875,111.9375)"/>
<path d="M0 0 C0.99 0.33 1.98 0.66 3 1 C-0.43361902 4.63559661 -3.7973607 7.36113346 -8 10 C-6.44303593 6.17836093 -3.96591316 3.81381505 -1 1 C-0.67 0.67 -0.34 0.34 0 0 Z " fill="#E4C79A" transform="translate(256,91)"/>
<path d="M0 0 C0.33 0 0.66 0 1 0 C2.33333333 10.16666667 2.33333333 10.16666667 1 15 C0.34 15 -0.32 15 -1 15 C-0.67 10.05 -0.34 5.1 0 0 Z " fill="#0C3D4F" transform="translate(193,82)"/>
<path d="M0 0 C-2.64458379 1.32229189 -4.67761301 1.09677194 -7.625 1.0625 C-8.62789062 1.05347656 -9.63078125 1.04445313 -10.6640625 1.03515625 C-11.43492188 1.02355469 -12.20578125 1.01195313 -13 1 C-13.33 0.34 -13.66 -0.32 -14 -1 C-12.41870971 -1.22331199 -10.83478911 -1.42804644 -9.25 -1.625 C-8.36828125 -1.74101563 -7.4865625 -1.85703125 -6.578125 -1.9765625 C-3.77140122 -2.00207817 -2.36615134 -1.44843844 0 0 Z " fill="#D6A080" transform="translate(18,80)"/>
<path d="M0 0 C1.32 0.66 2.64 1.32 4 2 C2.35 3.98 0.7 5.96 -1 8 C-1.66 7.01 -2.32 6.02 -3 5 C-2.01 3.35 -1.02 1.7 0 0 Z " fill="#223944" transform="translate(219,101)"/>
<path d="M0 0 C2.875 0.3125 2.875 0.3125 6 1 C6.66 1.99 7.32 2.98 8 4 C6.02 4.99 6.02 4.99 4 6 C2.62437146 4.71034824 1.29233607 3.37310707 0 2 C0 1.34 0 0.68 0 0 Z " fill="#EB5C2D" transform="translate(75,87)"/>
<path d="M0 0 C3.33511388 2.9901021 5.21521119 5.89498574 7 10 C7 10.66 7 11.32 7 12 C6.34 12 5.68 12 5 12 C4.5875 10.88625 4.175 9.7725 3.75 8.625 C2.64453484 6.00679305 2.25119213 5.16506911 -0.1875 3.5625 C-0.785625 3.376875 -1.38375 3.19125 -2 3 C-1.34 2.67 -0.68 2.34 0 2 C0 1.34 0 0.68 0 0 Z " fill="#EB8027" transform="translate(143,79)"/>
<path d="M0 0 C0 0.99 0 1.98 0 3 C-3 5.1875 -3 5.1875 -6 7 C-6.33 5.02 -6.66 3.04 -7 1 C-3.535 0.505 -3.535 0.505 0 0 Z " fill="#E97627" transform="translate(199,34)"/>
<path d="M0 0 C0 0.66 0 1.32 0 2 C0.66 2.33 1.32 2.66 2 3 C-1.3 3.66 -4.6 4.32 -8 5 C-3.375 0 -3.375 0 0 0 Z " fill="#84675D" transform="translate(72,149)"/>
<path d="M0 0 C0.66 0.33 1.32 0.66 2 1 C0.71034824 2.37562854 -0.62689293 3.70766393 -2 5 C-2.66 5 -3.32 5 -4 5 C-4.33 6.32 -4.66 7.64 -5 9 C-6.32 8.67 -7.64 8.34 -9 8 C-6.03 5.36 -3.06 2.72 0 0 Z " fill="#3F3627" transform="translate(103,122)"/>
<path d="M0 0 C0 0.99 0 1.98 0 3 C-0.66 3.66 -1.32 4.32 -2 5 C-2.33 5.845625 -2.66 6.69125 -3 7.5625 C-4 10 -4 10 -6 11 C-6.375 8.875 -6.375 8.875 -6 6 C-4.20659643 3.76086748 -2.16547337 1.87545461 0 0 Z " fill="#E06C2F" transform="translate(107,113)"/>
<path d="M0 0 C0.99 0.33 1.98 0.66 3 1 C1.79618552 3.49361571 0.54571278 5.68143083 -1 8 C-1.66 7.67 -2.32 7.34 -3 7 C-3 6.34 -3 5.68 -3 5 C-2.34 5 -1.68 5 -1 5 C-1.33 3.68 -1.66 2.36 -2 1 C-1.34 0.67 -0.68 0.34 0 0 Z " fill="#095369" transform="translate(208,107)"/>
<path d="M0 0 C4.29 0 8.58 0 13 0 C13.33 0.99 13.66 1.98 14 3 C9.38 3 4.76 3 0 3 C0 2.01 0 1.02 0 0 Z " fill="#EBBD88" transform="translate(22,96)"/>
<path d="M0 0 C0.99 0.33 1.98 0.66 3 1 C3.33 1.99 3.66 2.98 4 4 C3.01 4.495 3.01 4.495 2 5 C1.34444881 7.52733235 1.34444881 7.52733235 1 10 C0.01 9.67 -0.98 9.34 -2 9 C-1.34 6.03 -0.68 3.06 0 0 Z " fill="#FBA126" transform="translate(260,76)"/>
<path d="M0 0 C0.33 0.66 0.66 1.32 1 2 C0.360625 2.94875 -0.27875 3.8975 -0.9375 4.875 C-2.92620563 7.75287827 -2.92620563 7.75287827 -4 10 C-5.32 9.67 -6.64 9.34 -8 9 C-5.36 6.03 -2.72 3.06 0 0 Z " fill="#E46C35" transform="translate(84,58)"/>
<path d="M0 0 C0.66 0.33 1.32 0.66 2 1 C1.67 2.32 1.34 3.64 1 5 C0.34 5 -0.32 5 -1 5 C-1.66 6.32 -2.32 7.64 -3 9 C-3.75 7.3125 -3.75 7.3125 -4 5 C-2.0625 2.25 -2.0625 2.25 0 0 Z " fill="#DC5815" transform="translate(108,113)"/>
<path d="M0 0 C4.29 0 8.58 0 13 0 C13 0.33 13 0.66 13 1 C11.58461283 1.33872513 10.16762037 1.67074624 8.75 2 C7.96109375 2.185625 7.1721875 2.37125 6.359375 2.5625 C4 3 4 3 0 3 C0 2.01 0 1.02 0 0 Z " fill="#494039" transform="translate(114,114)"/>
<path d="M0 0 C0.99 0.33 1.98 0.66 3 1 C2.67 1.99 2.34 2.98 2 4 C0.125 4.8125 0.125 4.8125 -2 5 C-2.99 4.34 -3.98 3.68 -5 3 C-2.6875 1.4375 -2.6875 1.4375 0 0 Z " fill="#F07113" transform="translate(235,102)"/>
<path d="M0 0 C0.66 0 1.32 0 2 0 C2 2.64 2 5.28 2 8 C0.68 8.33 -0.64 8.66 -2 9 C-1.34 6.03 -0.68 3.06 0 0 Z " fill="#F1AA4E" transform="translate(258,74)"/>
<path d="M0 0 C1.32 0.99 2.64 1.98 4 3 C3.1875 4.9375 3.1875 4.9375 2 7 C1.01 7.33 0.02 7.66 -1 8 C-0.67 5.36 -0.34 2.72 0 0 Z " fill="#EB6517" transform="translate(189,36)"/>
<path d="M0 0 C0.66 0.33 1.32 0.66 2 1 C1.67 1.66 1.34 2.32 1 3 C0.34 3 -0.32 3 -1 3 C-1.04125 3.61875 -1.0825 4.2375 -1.125 4.875 C-1.41375 5.57625 -1.7025 6.2775 -2 7 C-5.0625 8.25 -5.0625 8.25 -8 9 C-7.34 8.01 -6.68 7.02 -6 6 C-5.34 6 -4.68 6 -4 6 C-4 5.34 -4 4.68 -4 4 C-3.34 4 -2.68 4 -2 4 C-2 3.34 -2 2.68 -2 2 C-1.34 2 -0.68 2 0 2 C0 1.34 0 0.68 0 0 Z " fill="#E89A4B" transform="translate(252,85)"/>
<path d="M0 0 C2.31 0 4.62 0 7 0 C7.33 0.99 7.66 1.98 8 3 C7.01 3.33 6.02 3.66 5 4 C5 3.34 5 2.68 5 2 C3.35 2.33 1.7 2.66 0 3 C0 2.01 0 1.02 0 0 Z " fill="#F78E16" transform="translate(258,70)"/>
<path d="M0 0 C1.65 0 3.3 0 5 0 C5 0.66 5 1.32 5 2 C2.23547967 3.38226016 -0.0461363 3.09525387 -3.125 3.0625 C-4.22070312 3.05347656 -5.31640625 3.04445312 -6.4453125 3.03515625 C-7.70988281 3.01775391 -7.70988281 3.01775391 -9 3 C-9 2.67 -9 2.34 -9 2 C-4.545 1.505 -4.545 1.505 0 1 C0 0.67 0 0.34 0 0 Z " fill="#DF5A25" transform="translate(170,53)"/>
<path d="M0 0 C0.33 0 0.66 0 1 0 C1 2.64 1 5.28 1 8 C2.32 8.33 3.64 8.66 5 9 C3.02 9.33 1.04 9.66 -1 10 C-2.46726798 6.18510326 -1.43336419 3.70988378 0 0 Z " fill="#5D8492" transform="translate(215,46)"/>
<path d="M0 0 C-1.38877354 3.35620271 -2.91677965 5.07298728 -6 7 C-6.66 7 -7.32 7 -8 7 C-8 6.34 -8 5.68 -8 5 C-2.52380952 0 -2.52380952 0 0 0 Z " fill="#F6610D" transform="translate(120,105)"/>
<path d="M0 0 C0.33 0.66 0.66 1.32 1 2 C-0.65 3.65 -2.3 5.3 -4 7 C-4.99 6.34 -5.98 5.68 -7 5 C-4.69 3.35 -2.38 1.7 0 0 Z " fill="#295577" transform="translate(197,100)"/>
<path d="M0 0 C0.66 0.33 1.32 0.66 2 1 C1.34 2.65 0.68 4.3 0 6 C-2.97 5.505 -2.97 5.505 -6 5 C-5.195625 4.360625 -4.39125 3.72125 -3.5625 3.0625 C-1.7249496 1.59396498 -1.7249496 1.59396498 0 0 Z " fill="#57768C" transform="translate(239,74)"/>
<path d="M0 0 C0.66 0 1.32 0 2 0 C1.34 3.3 0.68 6.6 0 10 C-1.98 10 -3.96 10 -6 10 C-6 9.67 -6 9.34 -6 9 C-4.35 9 -2.7 9 -1 9 C-1.020625 7.700625 -1.04125 6.40125 -1.0625 5.0625 C-1.08399454 3.70834367 -1.07148199 2.35243917 -1 1 C-0.67 0.67 -0.34 0.34 0 0 Z " fill="#76989F" transform="translate(181,70)"/>
<path d="M0 0 C0.66 0 1.32 0 2 0 C1.65120368 3.25543229 0.97866739 4.01873107 -1.5625 6.25 C-2.366875 6.8275 -3.17125 7.405 -4 8 C-3.49396008 5.83125748 -3.00016187 4.00032373 -2 2 C-1.34 2 -0.68 2 0 2 C0 1.34 0 0.68 0 0 Z " fill="#D76346" transform="translate(107,61)"/>
<path d="M0 0 C-1.62339805 1.70884005 -3.29319053 3.37446717 -5 5 C-5.66 5 -6.32 5 -7 5 C-7 3.35 -7 1.7 -7 0 C-2.25 -1.125 -2.25 -1.125 0 0 Z " fill="#CE5B28" transform="translate(150,98)"/>
<path d="M0 0 C2.31 0.33 4.62 0.66 7 1 C7 1.66 7 2.32 7 3 C4.36 3 1.72 3 -1 3 C-0.67 2.01 -0.34 1.02 0 0 Z " fill="#D7906B" transform="translate(108,96)"/>
<path d="M0 0 C2.31 0 4.62 0 7 0 C6.67 0.99 6.34 1.98 6 3 C4.02 3 2.04 3 0 3 C0 2.01 0 1.02 0 0 Z " fill="#EC9E6C" transform="translate(64,87)"/>
<path d="M0 0 C0.66 0.33 1.32 0.66 2 1 C1.34 2.65 0.68 4.3 0 6 C-0.99 5.67 -1.98 5.34 -3 5 C-3.33 4.34 -3.66 3.68 -4 3 C-3.34 3 -2.68 3 -2 3 C-2 2.34 -2 1.68 -2 1 C-1.34 0.67 -0.68 0.34 0 0 Z " fill="#096376" transform="translate(227,82)"/>
<path d="M0 0 C0.66 0.66 1.32 1.32 2 2 C1.34 3.32 0.68 4.64 0 6 C-1.32 5.67 -2.64 5.34 -4 5 C-2.68 3.35 -1.36 1.7 0 0 Z " fill="#F64101" transform="translate(83,64)"/>
<path d="M0 0 C2 1 2 1 3 3 C-1.43076923 5.09230769 -1.43076923 5.09230769 -4.3125 4.625 C-4.869375 4.41875 -5.42625 4.2125 -6 4 C-4.02 2.68 -2.04 1.36 0 0 Z " fill="#ED6D2E" transform="translate(105,38)"/>
<path d="M0 0 C0.33 0 0.66 0 1 0 C1 1.65 1 3.3 1 5 C-0.32 5.33 -1.64 5.66 -3 6 C-2.42655063 3.13275314 -2.1385485 2.1385485 0 0 Z " fill="#D76122" transform="translate(100,120)"/>
<path d="M0 0 C1.98 0.495 1.98 0.495 4 1 C3.67 2.32 3.34 3.64 3 5 C1.68 4.34 0.36 3.68 -1 3 C-0.67 2.01 -0.34 1.02 0 0 Z " fill="#092733" transform="translate(213,106)"/>
<path d="M0 0 C0.33 0.99 0.66 1.98 1 3 C-0.65 4.65 -2.3 6.3 -4 8 C-3.6875 5.125 -3.6875 5.125 -3 2 C-2.01 1.34 -1.02 0.68 0 0 Z " fill="#176377" transform="translate(216,88)"/>
<path d="M0 0 C0.33 0 0.66 0 1 0 C1 2.31 1 4.62 1 7 C-0.98 7.99 -0.98 7.99 -3 9 C-3.33 7.68 -3.66 6.36 -4 5 C-3.01 5 -2.02 5 -1 5 C-0.67 3.35 -0.34 1.7 0 0 Z " fill="#7E97A6" transform="translate(204,85)"/>
<path d="M0 0 C2.475 0.495 2.475 0.495 5 1 C5 1.33 5 1.66 5 2 C3.35 2 1.7 2 0 2 C0 1.34 0 0.68 0 0 Z " fill="#F0C2B3" transform="translate(51,87)"/>
</svg>
