<svg width="24" height="24" viewBox="0 0 24 24" fill="none" xmlns="http://www.w3.org/2000/svg">
<path d="M16.1236 19.5154H19.9774V9.50526C20.2483 9.50526 20.5082 9.39763 20.6997 9.20605C20.8913 9.01448 20.999 8.75464 20.999 8.48371C20.999 8.21278 20.8913 7.95294 20.6997 7.76136C20.5082 7.56979 20.2483 7.46216 19.9774 7.46216H10.2202C10.0623 7.4624 9.90661 7.49928 9.76537 7.56991C9.62412 7.64053 9.50119 7.74296 9.40625 7.86915" stroke="#E35728" stroke-linejoin="round"/>
<path d="M2.99805 13.4897C2.99805 13.4897 4.02555 11.5636 5.46818 11.7145C6.91081 11.8654 7.0736 12.8829 7.98401 12.598C8.89442 12.3131 9.01527 10.7196 10.5781 10.7196" stroke="#E35728" stroke-linejoin="round"/>
<path d="M14.319 20.7885L13.0473 20.5913C12.5659 20.5171 12.076 20.5171 11.5946 20.5913L10.3217 20.7885C9.81878 20.787 9.33693 20.5866 8.98133 20.231C8.62574 19.8754 8.42531 19.3935 8.42383 18.8907V16.2321C8.42531 15.7292 8.62574 15.2473 8.98133 14.8917C9.33693 14.5361 9.81878 14.3357 10.3217 14.3342L11.7155 14.7782C12.1085 14.9038 12.5309 14.9038 12.9239 14.7782L14.3177 14.3342C14.8206 14.3357 15.3024 14.5361 15.658 14.8917C16.0136 15.2473 16.2141 15.7292 16.2155 16.2321V18.8919C16.2137 19.3944 16.0133 19.8757 15.658 20.231C15.3028 20.5863 14.8214 20.7867 14.319 20.7885Z" stroke="#E35728" stroke-linejoin="round"/>
<path d="M12.3223 14.8714C12.3223 14.8714 11.8214 11.5052 13.5696 11.5052" stroke="#E35728" stroke-linejoin="round"/>
<path d="M9.29838 3.20874H4.27734V5.17483H9.29838V3.20874Z" stroke="#E35728" stroke-linejoin="round"/>
<path d="M2.99805 11.8022V10.7184L5.12255 5.17578H8.41355L10.5781 10.7178V14.3344" stroke="#E35728" stroke-linejoin="round"/>
<path d="M8.69594 19.5155H2.99805V11.8008" stroke="#E35728" stroke-linejoin="round"/>
</svg>
