<svg width="24" height="24" viewBox="0 0 24 24" fill="none" xmlns="http://www.w3.org/2000/svg">
<path d="M9.03516 6.75602C9.6498 5.70612 10.5441 4.79339 11.5966 4.19193C12.6518 3.58784 13.8468 3.27393 15.0602 3.27393C16.2763 3.27656 17.4687 3.59839 18.5212 4.20512C19.0462 4.50849 19.5289 4.8778 19.9536 5.30251C20.381 5.72722 20.7529 6.20733 21.0589 6.73228C21.6683 7.78219 21.9928 8.97454 22.0007 10.188V10.2197C22.0007 11.4226 21.6894 12.607 21.0959 13.6543C20.4971 14.7121 19.6318 15.5932 18.5872 16.2104C17.5426 16.8277 16.337 17.1601 15.1209 17.1759" stroke="#E35728" stroke-opacity="0.8"/>
<path d="M13.3496 8.38965C13.9226 7.14981 15.0379 6.30566 16.3128 6.30566H17.9262" stroke="#E35728" stroke-opacity="0.8" stroke-miterlimit="10"/>
<path d="M17.9273 14.2547H16.3134C16.1732 14.2547 16.0332 14.2443 15.8945 14.2239" stroke="#E35728" stroke-opacity="0.8" stroke-miterlimit="10"/>
<path d="M14.4863 9.55737H17.0863" stroke="#E35728" stroke-opacity="0.8" stroke-miterlimit="10"/>
<path d="M15.3359 11.0042H17.087" stroke="#E35728" stroke-opacity="0.8" stroke-miterlimit="10"/>
<path d="M10.4457 12.307V12.2671C10.4486 11.8957 10.3096 11.5372 10.057 11.2649C9.80447 10.9925 9.45748 10.8269 9.08691 10.8017C8.68617 10.7769 8.29191 10.9119 7.99057 11.1773C7.68923 11.4426 7.50539 11.8166 7.47934 12.2173C7.46884 12.4184 7.49943 12.6196 7.56925 12.8086C7.63907 12.9975 7.74664 13.1703 7.88542 13.3163C8.02419 13.4623 8.19126 13.5785 8.37642 13.6578C8.56158 13.7371 8.76096 13.7779 8.9624 13.7776H8.95237C9.15379 13.7772 9.35318 13.8178 9.53839 13.897C9.7236 13.9762 9.89074 14.0922 10.0296 14.2381C10.1685 14.384 10.2762 14.5566 10.3462 14.7455C10.4162 14.9343 10.447 15.1355 10.4368 15.3366C10.4102 15.7373 10.226 16.1112 9.92438 16.3762C9.62276 16.6413 9.22836 16.776 8.8276 16.7509C8.45708 16.7256 8.11016 16.5599 7.85764 16.2876C7.60513 16.0153 7.46605 15.6568 7.46879 15.2855" stroke="#E35728" stroke-miterlimit="10"/>
<path d="M2.67516 16.7519C1.94479 15.2147 1.80323 13.463 2.27729 11.8285C2.75134 10.1939 3.80811 8.78981 5.24762 7.88188C6.68714 6.97395 8.40953 6.62519 10.0889 6.90158C11.7682 7.17797 13.2879 8.06034 14.3605 9.38172C15.4332 10.7031 15.9842 12.3718 15.9094 14.0721C15.8346 15.7724 15.1391 17.3862 13.9546 18.6083C12.7701 19.8304 11.1787 20.5759 9.48159 20.7037C7.78448 20.8315 6.09938 20.3329 4.74517 19.302" stroke="#E35728" stroke-miterlimit="10"/>
<path d="M8.97266 10.7903V9.04639" stroke="#E35728" stroke-miterlimit="10"/>
<path d="M8.97266 18.494V16.75" stroke="#E35728" stroke-miterlimit="10"/>
</svg>
