<svg width="24" height="25" viewBox="0 0 24 25" fill="none" xmlns="http://www.w3.org/2000/svg">
<path d="M10.9199 12.3292V20.2569" stroke="#E35728" stroke-opacity="0.8"/>
<path d="M8.04102 5.15833H16.3379" stroke="#E35728" stroke-opacity="0.8" stroke-linejoin="round"/>
<path d="M8.04102 7.48914H16.3379" stroke="#E35728" stroke-opacity="0.8" stroke-linejoin="round"/>
<path d="M16.337 20.0083H19.0005V2.54443H5.38281V20.0079H11.0988" stroke="#E35728" stroke-linejoin="round"/>
<path d="M16.2539 12.3929V24.0001L13.5798 22.1535L10.9199 24.0001V20.1938" stroke="#E35728" stroke-linejoin="round"/>
<path d="M16.2517 12.3938C16.2509 12.9207 16.094 13.4356 15.8008 13.8734C15.5076 14.3112 15.0912 14.6524 14.6042 14.8537C14.1173 15.055 13.5816 15.1074 13.0648 15.0045C12.548 14.9015 12.0733 14.6476 11.7007 14.275C11.3281 13.9024 11.0743 13.4278 10.9713 12.911C10.8683 12.3942 10.9208 11.8585 11.1221 11.3715C11.3234 10.8846 11.6645 10.4682 12.1024 10.175C12.5402 9.88176 13.0551 9.72487 13.582 9.72412C14.29 9.72442 14.9688 10.0058 15.4694 10.5064C15.97 11.007 16.2514 11.6858 16.2517 12.3938Z" stroke="#E35728" stroke-linejoin="round"/>
</svg>
