<svg width="24" height="24" viewBox="0 0 24 24" fill="none" xmlns="http://www.w3.org/2000/svg">
<path d="M2.47656 14.0055H21.5222" stroke="#E35728" stroke-opacity="0.8" stroke-miterlimit="10"/>
<path d="M8.44141 14.0064V11.6543" stroke="#E35728" stroke-opacity="0.8" stroke-miterlimit="10"/>
<path d="M12.0312 14.0052V9.69495" stroke="#E35728" stroke-opacity="0.8" stroke-miterlimit="10"/>
<path d="M15.5566 14.0054V7.37598" stroke="#E35728" stroke-opacity="0.8" stroke-miterlimit="10"/>
<path d="M2.47564 14.4091V4.59122C2.46475 4.37267 2.5408 4.15868 2.68719 3.99603C2.83357 3.83337 3.03838 3.73527 3.25688 3.72314H20.7398C20.9583 3.73519 21.1632 3.83325 21.3097 3.99591C21.4562 4.15856 21.5324 4.37259 21.5216 4.59122V16.0796C21.5324 16.2982 21.4562 16.5122 21.3097 16.6749C21.1632 16.8375 20.9583 16.9356 20.7398 16.9476H3.25688C3.03838 16.9355 2.83357 16.8374 2.68719 16.6748C2.5408 16.5121 2.46475 16.2981 2.47564 16.0796V14.4091Z" stroke="#E35728" stroke-miterlimit="10"/>
<path d="M2 20.2753H22" stroke="#E35728" stroke-miterlimit="10"/>
<path d="M12 16.9628V20.2755" stroke="#E35728" stroke-miterlimit="10"/>
</svg>
