<svg width="24" height="25" viewBox="0 0 24 25" fill="none" xmlns="http://www.w3.org/2000/svg">
<path fill-rule="evenodd" clip-rule="evenodd" d="M11.1619 9.44912C11.5699 9.4544 11.9703 9.34308 12.3122 9.12933C12.6541 8.91559 12.9221 8.60907 13.0821 8.24874C13.242 7.88842 13.2868 7.49058 13.2105 7.1058C13.1343 6.72102 12.9406 6.36668 12.654 6.08786C12.3675 5.80903 12.001 5.61831 11.6012 5.53994C11.2014 5.46157 10.7864 5.49908 10.4088 5.64772C10.0313 5.79637 9.7084 6.04942 9.4811 6.3747C9.25381 6.69998 9.13242 7.0828 9.13239 7.47447C9.12877 7.99464 9.34055 8.49489 9.72113 8.86519C10.1017 9.2355 10.62 9.44554 11.1619 9.44912ZM15.7445 15.5H11.0312L15.2867 5.62775H20L15.7445 15.5ZM4.05895 5.62775H8.11791V15.5H4.05895V9.57655H0V5.62775H4.05895Z" fill="black"/>
</svg>
