<svg width="24" height="24" viewBox="0 0 24 24" fill="none" xmlns="http://www.w3.org/2000/svg">
<path d="M14.0689 13.8333H10.125V14.354H11.8209V19.3546H12.373V14.354H14.0689V13.8333Z" fill="#E35728" fill-opacity="0.8" stroke="#E35728" stroke-opacity="0.8" stroke-width="0.5"/>
<path d="M5.02479 10.5625V8.55879H7.46992V8.03837H5.02479V6.08227H7.66735V5.56152H4.47266V11.0829H7.70651V10.5625H5.02479Z" fill="#E35728" fill-opacity="0.8" stroke="#E35728" stroke-opacity="0.8" stroke-width="0.5"/>
<path d="M19.5669 6.04027V5.51953H16.4512V11.0409H17.0033V8.59577H19.4484V8.07632H17.0033V6.04027H19.5669Z" fill="#E35728" fill-opacity="0.8" stroke="#E35728" stroke-opacity="0.8" stroke-width="0.5"/>
<path d="M17.0413 14.5731C17.1951 15.3216 17.1803 16.095 16.9982 16.8371C16.816 17.5792 16.4709 18.2715 15.988 18.8637C15.5051 19.4559 14.8964 19.9332 14.2061 20.261C13.5159 20.5888 12.7613 20.7589 11.9972 20.7589C11.233 20.7589 10.4784 20.5888 9.78816 20.261C9.09789 19.9332 8.48923 19.4559 8.00631 18.8637C7.5234 18.2715 7.17833 17.5792 6.99615 16.8371C6.81397 16.095 6.79923 15.3216 6.953 14.5731" stroke="#E35728" stroke-linejoin="round"/>
<path d="M11.3003 8.38884C11.3004 9.40729 10.9984 10.4029 10.4326 11.2497C9.86684 12.0966 9.06263 12.7566 8.12171 13.1464C7.18079 13.5361 6.14542 13.6381 5.14654 13.4394C4.14766 13.2407 3.23013 12.7502 2.51 12.0301C1.78987 11.3099 1.29948 10.3923 1.10084 9.39344C0.902205 8.39455 1.00425 7.35918 1.39407 6.41829C1.78389 5.47739 2.44397 4.67323 3.29084 4.10749C4.13771 3.54176 5.13333 3.23986 6.15178 3.23999C7.51728 3.24008 8.82683 3.78258 9.79236 4.74817C10.7579 5.71376 11.3003 7.02334 11.3003 8.38884Z" stroke="#E35728" stroke-linejoin="round"/>
<path d="M22.9995 8.38884C22.9996 9.40729 22.6976 10.4029 22.1318 11.2497C21.5661 12.0966 20.7618 12.7566 19.8209 13.1464C18.88 13.5361 17.8446 13.6381 16.8458 13.4394C15.8469 13.2407 14.9293 12.7502 14.2092 12.0301C13.4891 11.3099 12.9987 10.3923 12.8001 9.39344C12.6014 8.39455 12.7035 7.35918 13.0933 6.41829C13.4831 5.47739 14.1432 4.67323 14.9901 4.10749C15.8369 3.54176 16.8325 3.23986 17.851 3.23999C19.2165 3.24008 20.526 3.78258 21.4916 4.74817C22.4571 5.71376 22.9995 7.02334 22.9995 8.38884Z" stroke="#E35728" stroke-linejoin="round"/>
</svg>
